<svg xmlns="http://www.w3.org/2000/svg" width="219.3" height="232.6" fill="none" viewBox="1545 502.1 219.3 232.6" xmlns:c2pa="http://c2pa.org/manifest"><metadata><c2pa:manifest>AAAWgmp1bWIAAAAeanVtZGMycGEAEQAQgAAAqgA4m3EDYzJwYQAAABZcanVtYgAAAEdqdW1kYzJtYQARABCAAACqADibcQN1cm46YzJwYTozM2NmODZiNy1hNTQ2LTRjNzYtYmZkNC02OTkyNjcwZGE0YzIAAAADl2p1bWIAAAApanVtZGMyYXMAEQAQgAAAqgA4m3EDYzJwYS5hc3NlcnRpb25zAAAAALxqdW1iAAAARGp1bWRjYm9yABEAEIAAAKoAOJtxE2MycGEuaW5ncmVkaWVudC52MwAAAAAYYzJzaNXz/QCa1UgbShYAok8gZ3YAAABwY2JvcqNpZGM6Zm9ybWF0bWltYWdlL3N2Zyt4bWxqaW5zdGFuY2VJRHgseG1wOmlpZDo1NjZmYzVmMy0wNTlhLTQ1ODMtYjg1My0xNWZlMDY0NzE3ZDVscmVsYXRpb25zaGlwaHBhcmVudE9mAAAB4mp1bWIAAABBanVtZGNib3IAEQAQgAAAqgA4m3ETYzJwYS5hY3Rpb25zLnYyAAAAABhjMnNo7PvxJoSfFQFXt7zclH42qwAAAZljYm9yomdhY3Rpb25zgqJmYWN0aW9ua2MycGEub3BlbmVkanBhcmFtZXRlcnOha2luZ3JlZGllbnRzgaJjdXJseC1zZWxmI2p1bWJmPWMycGEuYXNzZXJ0aW9ucy9jMnBhLmluZ3JlZGllbnQudjNkaGFzaFggURfEs4pDkUegSdGsDsXn7HztlijFoVNta8W2e373txekZmFjdGlvbngdY29tLmFudGhyb3BpYy5jbGF1ZGUucHJvdmlkZWRqcGFyYW1ldGVyc6F4H2NvbS5hbnRocm9waWMub3JpZ2luLWNvbmZpZGVuY2VndW5rbm93bmtkZXNjcmlwdGlvbnhmQ2xhdWRlIHByb3ZpZGVkIHRoaXMgZmlsZSBhdCB0aGUgcmVxdWVzdCBvZiBhIHVzZXIgYW5kIG1heSBoYXZlIGNyZWF0ZWQgb3IgbW9kaWZpZWQgdGhlIGZpbGUgY29udGVudHMubXNvZnR3YXJlQWdlbnShZG5hbWVmQ2xhdWRlcmFsbEFjdGlvbnNJbmNsdWRlZPUAAADIanVtYgAAAEBqdW1kY2JvcgARABCAAACqADibcRNjMnBhLmhhc2guZGF0YQAAAAAYYzJzaAdKr3VBdIzHRoETME5ZTkAAAACAY2JvcqVjYWxnZnNoYTI1NmNwYWRNAAAAAAAAAAAAAAAAAGRoYXNoWCCYNwfxbCvuVpNglnHemByRZcsxOSTi4f6AIZxCY/zsk2RuYW1lbmp1bWJmIG1hbmlmZXN0amV4Y2x1c2lvbnOBomVzdGFydBixZmxlbmd0aBkeBAAAAj5qdW1iAAAAJ2p1bWRjMmNsABEAEIAAAKoAOJtxA2MycGEuY2xhaW0udjIAAAACD2Nib3KlY2FsZ2ZzaGEyNTZpc2lnbmF0dXJleE1zZWxmI2p1bWJmPS9jMnBhL3VybjpjMnBhOjMzY2Y4NmI3LWE1NDYtNGM3Ni1iZmQ0LTY5OTI2NzBkYTRjMi9jMnBhLnNpZ25hdHVyZWppbnN0YW5jZUlEeCx4bXA6aWlkOmEyMWE2YzUxLTg0ZTUtNGUwMS1hYTZiLThmYzg1YWMzMTU4N3JjcmVhdGVkX2Fzc2VydGlvbnODomN1cmx4LXNlbGYjanVtYmY9YzJwYS5hc3NlcnRpb25zL2MycGEuaW5ncmVkaWVudC52M2RoYXNoWCBRF8SzikORR6BJ0awOxefsfO2WKMWhU21rxbZ7fve3F6JjdXJseCpzZWxmI2p1bWJmPWMycGEuYXNzZXJ0aW9ucy9jMnBhLmFjdGlvbnMudjJkaGFzaFggSG5Qn5KjHrm+4Y1qnwKh4sflE3XTPCIA1D9DWRuaGWKiY3VybHgpc2VsZiNqdW1iZj1jMnBhLmFzc2VydGlvbnMvYzJwYS5oYXNoLmRhdGFkaGFzaFggDh4aLLLiJADqL6YAGA8WN58TSZJKC8J036jbYIe3OdF0Y2xhaW1fZ2VuZXJhdG9yX2luZm+jZG5hbWVvQW50aHJvcGljIEZpbGVzZ3ZlcnNpb25lMS4wLjBrc3BlY1ZlcnNpb25lMi40LjAAABA4anVtYgAAAChqdW1kYzJjcwARABCAAACqADibcQNjMnBhLnNpZ25hdHVyZQAAABAIY2JvctKEWQISogEmGCFZAgowggIGMIIBjaADAgECAhRA5aAK7sI50L64g/oGQgU9Z1UTADAKBggqhkjOPQQDAzBJMRcwFQYDVQQKEw5BbnRocm9waWMsIFBCQzEuMCwGA1UEAxMlQW50aHJvcGljIENvbnRlbnQgQ3JlZGVudGlhbHMgUm9vdCBDQTAeFw0yNjA4MDcxODQzNTZaFw0yODA4MDYxOTQzNTZaMEQxFzAVBgNVBAoTDkFudGhyb3BpYywgUEJDMSkwJwYDVQQDEyBBbnRocm9waWMgQ2xhdWRlIENvbnRlbnQgU2lnbmluZzBZMBMGByqGSM49AgEGCCqGSM49AwEHA0IABJh6CmvLUBgFFNU0vUKlOVtE6djd17L5SuwX0LemFisBM3dkd/3cyjxFA3Qo5S46fX0/ihY0VZ7mfb9KF703t5OjWDBWMA4GA1UdDwEB/wQEAwIHgDAVBgNVHSUEDjAMBgorBgEEAYPoXgIBMAwGA1UdEwEB/wQCMAAwHwYDVR0jBBgwFoAUzlHiBIFOZFsj+OPEz5o+nMHXXMIwCgYIKoZIzj0EAwMDZwAwZAIwMXMdFJ4BetLLVY7ORuE9noqbbAZOZn/aArXyTwFAZfKrPzxF2vPoJNf1+UCdg1XGAjBwX1zd9WGqYkqmL5SFqw1QySjr1zJfpJM9+1rdDwSPLMOPOjKuiXjoU/pUUeG9RwmhY3BhZFkNngAAAAAAAAAAAAAAAAAAAAAAAAAAAAAAAAAAAAAAAAAAAAAAAAAAAAAAAAAAAAAAAAAAAAAAAAAAAAAAAAAAAAAAAAAAAAAAAAAAAAAAAAAAAAAAAAAAAAAAAAAAAAAAAAAAAAAAAAAAAAAAAAAAAAAAAAAAAAAAAAAAAAAAAAAAAAAAAAAAAAAAAAAAAAAAAAAAAAAAAAAAAAAAAAAAAAAAAAAAAAAAAAAAAAAAAAAAAAAAAAAAAAAAAAAAAAAAAAAAAAAAAAAAAAAAAAAAAAAAAAAAAAAAAAAAAAAAAAAAAAAAAAAAAAAAAAAAAAAAAAAAAAAAAAAAAAAAAAAAAAAAAAAAAAAAAAAAAAAAAAAAAAAAAAAAAAAAAAAAAAAAAAAAAAAAAAAAAAAAAAAAAAAAAAAAAAAAAAAAAAAAAAAAAAAAAAAAAAAAAAAAAAAAAAAAAAAAAAAAAAAAAAAAAAAAAAAAAAAAAAAAAAAAAAAAAAAAAAAAAAAAAAAAAAAAAAAAAAAAAAAAAAAAAAAAAAAAAAAAAAAAAAAAAAAAAAAAAAAAAAAAAAAAAAAAAAAAAAAAAAAAAAAAAAAAAAAAAAAAAAAAAAAAAAAAAAAAAAAAAAAAAAAAAAAAAAAAAAAAAAAAAAAAAAAAAAAAAAAAAAAAAAAAAAAAAAAAAAAAAAAAAAAAAAAAAAAAAAAAAAAAAAAAAAAAAAAAAAAAAAAAAAAAAAAAAAAAAAAAAAAAAAAAAAAAAAAAAAAAAAAAAAAAAAAAAAAAAAAAAAAAAAAAAAAAAAAAAAAAAAAAAAAAAAAAAAAAAAAAAAAAAAAAAAAAAAAAAAAAAAAAAAAAAAAAAAAAAAAAAAAAAAAAAAAAAAAAAAAAAAAAAAAAAAAAAAAAAAAAAAAAAAAAAAAAAAAAAAAAAAAAAAAAAAAAAAAAAAAAAAAAAAAAAAAAAAAAAAAAAAAAAAAAAAAAAAAAAAAAAAAAAAAAAAAAAAAAAAAAAAAAAAAAAAAAAAAAAAAAAAAAAAAAAAAAAAAAAAAAAAAAAAAAAAAAAAAAAAAAAAAAAAAAAAAAAAAAAAAAAAAAAAAAAAAAAAAAAAAAAAAAAAAAAAAAAAAAAAAAAAAAAAAAAAAAAAAAAAAAAAAAAAAAAAAAAAAAAAAAAAAAAAAAAAAAAAAAAAAAAAAAAAAAAAAAAAAAAAAAAAAAAAAAAAAAAAAAAAAAAAAAAAAAAAAAAAAAAAAAAAAAAAAAAAAAAAAAAAAAAAAAAAAAAAAAAAAAAAAAAAAAAAAAAAAAAAAAAAAAAAAAAAAAAAAAAAAAAAAAAAAAAAAAAAAAAAAAAAAAAAAAAAAAAAAAAAAAAAAAAAAAAAAAAAAAAAAAAAAAAAAAAAAAAAAAAAAAAAAAAAAAAAAAAAAAAAAAAAAAAAAAAAAAAAAAAAAAAAAAAAAAAAAAAAAAAAAAAAAAAAAAAAAAAAAAAAAAAAAAAAAAAAAAAAAAAAAAAAAAAAAAAAAAAAAAAAAAAAAAAAAAAAAAAAAAAAAAAAAAAAAAAAAAAAAAAAAAAAAAAAAAAAAAAAAAAAAAAAAAAAAAAAAAAAAAAAAAAAAAAAAAAAAAAAAAAAAAAAAAAAAAAAAAAAAAAAAAAAAAAAAAAAAAAAAAAAAAAAAAAAAAAAAAAAAAAAAAAAAAAAAAAAAAAAAAAAAAAAAAAAAAAAAAAAAAAAAAAAAAAAAAAAAAAAAAAAAAAAAAAAAAAAAAAAAAAAAAAAAAAAAAAAAAAAAAAAAAAAAAAAAAAAAAAAAAAAAAAAAAAAAAAAAAAAAAAAAAAAAAAAAAAAAAAAAAAAAAAAAAAAAAAAAAAAAAAAAAAAAAAAAAAAAAAAAAAAAAAAAAAAAAAAAAAAAAAAAAAAAAAAAAAAAAAAAAAAAAAAAAAAAAAAAAAAAAAAAAAAAAAAAAAAAAAAAAAAAAAAAAAAAAAAAAAAAAAAAAAAAAAAAAAAAAAAAAAAAAAAAAAAAAAAAAAAAAAAAAAAAAAAAAAAAAAAAAAAAAAAAAAAAAAAAAAAAAAAAAAAAAAAAAAAAAAAAAAAAAAAAAAAAAAAAAAAAAAAAAAAAAAAAAAAAAAAAAAAAAAAAAAAAAAAAAAAAAAAAAAAAAAAAAAAAAAAAAAAAAAAAAAAAAAAAAAAAAAAAAAAAAAAAAAAAAAAAAAAAAAAAAAAAAAAAAAAAAAAAAAAAAAAAAAAAAAAAAAAAAAAAAAAAAAAAAAAAAAAAAAAAAAAAAAAAAAAAAAAAAAAAAAAAAAAAAAAAAAAAAAAAAAAAAAAAAAAAAAAAAAAAAAAAAAAAAAAAAAAAAAAAAAAAAAAAAAAAAAAAAAAAAAAAAAAAAAAAAAAAAAAAAAAAAAAAAAAAAAAAAAAAAAAAAAAAAAAAAAAAAAAAAAAAAAAAAAAAAAAAAAAAAAAAAAAAAAAAAAAAAAAAAAAAAAAAAAAAAAAAAAAAAAAAAAAAAAAAAAAAAAAAAAAAAAAAAAAAAAAAAAAAAAAAAAAAAAAAAAAAAAAAAAAAAAAAAAAAAAAAAAAAAAAAAAAAAAAAAAAAAAAAAAAAAAAAAAAAAAAAAAAAAAAAAAAAAAAAAAAAAAAAAAAAAAAAAAAAAAAAAAAAAAAAAAAAAAAAAAAAAAAAAAAAAAAAAAAAAAAAAAAAAAAAAAAAAAAAAAAAAAAAAAAAAAAAAAAAAAAAAAAAAAAAAAAAAAAAAAAAAAAAAAAAAAAAAAAAAAAAAAAAAAAAAAAAAAAAAAAAAAAAAAAAAAAAAAAAAAAAAAAAAAAAAAAAAAAAAAAAAAAAAAAAAAAAAAAAAAAAAAAAAAAAAAAAAAAAAAAAAAAAAAAAAAAAAAAAAAAAAAAAAAAAAAAAAAAAAAAAAAAAAAAAAAAAAAAAAAAAAAAAAAAAAAAAAAAAAAAAAAAAAAAAAAAAAAAAAAAAAAAAAAAAAAAAAAAAAAAAAAAAAAAAAAAAAAAAAAAAAAAAAAAAAAAAAAAAAAAAAAAAAAAAAAAAAAAAAAAAAAAAAAAAAAAAAAAAAAAAAAAAAAAAAAAAAAAAAAAAAAAAAAAAAAAAAAAAAAAAAAAAAAAAAAAAAAAAAAAAAAAAAAAAAAAAAAAAAAAAAAAAAAAAAAAAAAAAAAAAAAAAAAAAAAAAAAAAAAAAAAAAAAAAAAAAAAAAAAAAAAAAAAAAAAAAAAAAAAAAAAAAAAAAAAAAAAAAAAAAAAAAAAAAAAAAAAAAAAAAAAAAAAAAAAAAAAAAAAAAAAAAAAAAAAAAAAAAAAAAAAAAAAAAAAAAAAAAAAAAAAAAAAAAAAAAAAAAAAAAAAAAAAAAAAAAAAAAAAAAAAAAAAAAAAAAAAAAAAAAAAAAAAAAAAAAAAAAAAAAAAAAAAAAAAAAAAAAAAAAAAAAAAAAAAAAAAAAAAAAAAAAAAAAAAAAAAAAAAAAAAAAAAAAAAAAAAAAAAAAAAAAAAAAAAAAAAAAAAAAAAAAAAAAAAAAAAAAAAAAAAAAAAAAAAAAAAAAAAAAAAAAAAAAAAAAAAAAAAAAAAAAAAAAAAAAAAAAAAAAAAAAAAAAAAAAAAAAAAAAAAAAAAAAAAAAAAAAAAAAAAAAAAAAAAAAAAAAAAAAAAAAAAAAAAAAAAAAAAAAAAAAAAAAAAAAAAAAAAAAAAAAAAAAAAAAAAAAAAAAAAAAAAAAAAAAAAAAAAAAAAAAAAAAAAAAAAAAAAAAAAAAAAAAAAAAAAAAAAAAAAAAAAAAAAAAAAAAAAAAAAAAAAAAAAAAAAAAAAAAAAAAAAAAAAAAAAAAAAAAAAAAAAAAAAAAAAAAAAAAAAAAAAAAAAAAAAAAAAAAAAAAAAAAAAAAAAAAAAAAAAAAAAAAAAAAAAAAAAAAAAAAAAAAAAAAAAAAAAAAAAAAAAAAAAAAAAAAAAAAAAAAAAAAAAAAAAAAAAAAAAAAAAAAAAAAAAAAAAAAAAAAAAAAAAAAAAAAAAAAAAAAAAAAAAAAAAAAAAAAAAAAAAAAAAAAAAAAAAAAAAAAAAAAAAAAAAAAAAAAAAAAAAAAAAAAAAAAAAAAAAAAAAAAAAAAAAAAAAAAAAAAAAAAAAAAAAAAAAAAAAAAAAAAAAAAAAAAAAAAAAAAAAAAAAAAAAAAAAAAAAAAAAAAAAAAAAAAAAAAAAAAAAAAAAAAAAAAAAAAAAAAAAAAAAAAAAAAAAAAAAAAAAAAAAAAAAAAAAAAAAAAAAAAAAAAAAAAAAAAAAAAAAAAAAAAAAAAAAAAAAAAAAAAAAAAAAAAAAAAAAAAAAAAAAAAAAAAAAAAAAAAAAAAAAAAAAAAAAAAAAAAAAAAAAAAAAAAAAAAAAAAAAAAAAAAAAAAAAAAAAAAAAAAAAAAAAAAAAAAAAAAAAAAAAAAAAAAAAAAAAAAAAAAAAAAAAAAAAAAAAAAAAAAAAAAAAAAAAAAAAAAAAAAAAAAAAAAAAAAAAAAAAAAAAAAAAAAAAAAAAAAAAAAAAAAAAAAAAAAAAAAAAAAAAAAAAAAAAAAAAAAAAAAAAAAAAAAAAAAAAAAAAAAAAAAAAAAAAAAAAAAAAAAAAAAAAAAAAAAAAAAAAAAAAAAAAAAAAAAAAAAAAAAAAAAAAAAAAAAAAAAAAAAAAAAAAPZYQF4bxxDJy4kxBsCZTwVDKTy3jJnGG+j2m4NXeBNKUFAP4jK2ho5K6AWNRKn+H+JwVfyEFRldsUD4fV89HY4WfrQ=</c2pa:manifest></metadata><defs><clipPath id="clip7_13-sad"><path fill="#fff" d="M1555 510.1h199.8v216.6H1555z"/></clipPath></defs><g clip-path="url(#clip7_13-sad)"><path fill="#9178e6" d="M1754.3 689.2v-.2q.7-.6 0-.9v-.5l.3-.1v-.1q.3 0 .3-.3 0-.5-.5-.4v-.3q.4-.4.4-1.1v-3q.2-1-.3-1.3v-.6q.3 0 .2-.3c-.4-.7.2-1.4-.1-2-.2-.4 0-.9-.3-1.3v-1.5c-.4-1 0-2.1-.5-3l-.2-2.3q.1-1-.2-2l-.4-1.7v-.4q0-1.4-.5-2.5l-.5-3.5-.2-.3-.6-3.1q.1-.5-.2-1l-.1-.3-.9-3.7-.8-3.4-.5-2.2-.4-1.2-.8-2.9-.7-2.5v-.2l-3.8-12 .5-.5-.7-.3-.5-1.1h.1c.3-.3-.2-.6-.3-.9v-.1l.3-.2.4.2-.3-.4q-.2-.6-.8-.8l-1-2.8h-.1l-.7-2q.8-.4.2-.7-.5-.4-.9-1l-.3-1h.1q.1-1.5-.8-2l-1-2.7v-.8q0-.4-.4-.4l-.5-1-.2-.3-.2-.5q0-1.6-1-2.5l-.2-.4q.2-.6-.2-1.1v-.5l-.5-1.2-.2.4q-.3-.5-.4-1.2-.1-.4-.4-.4l-.3-.7q.3-.1-.1-.7l-1.2-2.2-.2-.4-.1-.4.6.1c.4-1-1.4-.7-1-1.7l-.4-.4-.5-.8-.3-.7.3-.1c.1-.3-.1-.9-.4-.9h-.1l-.4-.2-.3-.7-.1-.5q.4 0-.2-.6l-.2-.2-.5-.9-.1-.3-.4-.7-.2-.7-.7-1.4v-.4l-.2-.3q-.2-.9-.7-1.6v-.1l-.1-.2-.4-.7-.5-.4v-.2q.3 0 .4-.4-.1-.7-.8-.6 0-.2-.3-.5 0-1.2-.8-2.2l-.1-.2q-.2-.3-.6-.2 0 .8.6 1.3l.2.3h-.1l-.1-.2-.8-1.5v-.2q0-.2-.2-.2h-.1c.5-.5.2-1.1 0-1.7-.4-.6-.5-.7-1.2-.5l-.2-.4v-.1h.4c.4-.2.4-.3-.2-1.3l-.2-.3q-.2-.2-.5-.1l-.2.4q0 .4.3.5h.3-.4l-1.1-2 .5-.1q.3-.4 0-.7l-.5-.2v-.3q-.6 0-.5-.5t-.4-1l-.4-.2q.2-.4 0-.9l-.4-.2-.2.5-.1-.2q.2 0 .3-.3-.1-.7-.8-.8v-.1l-.4-.1v-.2l-.1-.2-.1.2q-.2 0-.3-.3h.8q-.1-.2-.4-.1v-.3q-.9-.4-1-1.4 0-.3-.4-.6-.3 0-.5-.3l.3-.1q.3-.1.5-.5-.4-.5-.7-.5-.4-.2-.7-.1-.1-1-.9-1.8l-.3-.3v-.6c0-.6-.7-1-.3-1.6l-.5-.2-.1-.2v.1h-.3q-.3-.4-.6-.3 0-.2-.1-.1-.6-.1-.4-.6.2-.2 0-.5l-.2-.4q.3 0 .1-.5-.9-1.5-2.4-2.9.7-.2 1-1.4c-1.3.5-1.7-1.2-3-1l-.4-.1q.3-.2.1-.5.5-.3 0-.8-.2-.5-.7-.4l-.1.3q-.4-.1-.7-.6.5-.1.3-.5h.1v-.3h-.2q-.2-.3-.8-.4l-.2-.2h.4l.4-.2q0-.6-.5-.8-.7-.5-1-1.2-.3-1.2-1-.5l-.6-.5-.3-.4c.4.5.7.2 1.7-.7q-1.4.4-1.7-.7l-1-1q-.2-.3-.5 0l-.4-.2v-.2l-.3-.5q.5-.4.1-.7l-.6-1v-.2.1q-.5.2-.5.5l-1-1h-.5q-.2.3.2.5.3.2.1.5l-1-1h1.2q0-.3-.3-.5l-.2-.5h.4q.5 0 .8-.3c-.2-.5-.6-.3-.9-.4s-.6-.6-1-.2q-.2.2 0 .4v.2l-.2.2-.3-.1q-.3-.6-.9-.6l-.2-.2v-.2q.1-.2.4 0l.9.8v-.7l.1-.4q0-.2-.4-.2l-.6-.7v-.2h.1v-.3q-.2-.3-.5-.1l.1.3h-.2q0-.5-.4-.8h.1l.1-.2-.2-.2-.2.2q0-.6-.7-1h-.2q.5-.5.3-1.2-.1-.5-.7-.3-.6 0-.9-.3-.1-.4-.4-.3l-.9-1.1h.5q.5.1.5-.3 0-.3-.4-.4-1-.2-1.8-.8l-.2-.2-1-.9-.2-.2-.2-.2q-.3-.7-.9-1.1l-.5-.4v-.1l-.3-.3q-.5-.7-1.4-1.2l-.2-.3q-.4-.7-1.1-1.3.5.2.6-.2-.2-.6-.8-.5h-.5l-.4-.2-.4-.4-.2-.2-.1-.2-.7-1q-.5-.7-1.2-.8l-3.7-3.1q-2.1-1.7-4.7-3l-.6-.3h-.7v.1l-.5-.2h-.5l-.6-.1h-.7q-1.7.5-2.6 2l-1.3 2a3 3 0 0 0-.3 2.1l-.1.2c-.8 1.7-.7 3.4-.9 5.1l.4-.1c0 .3-.2 0-.3.1l-.2 1.2.1.7q.6.4 0 .9-.4.8-.2 1.7l.1.1q.5.2.3.4c-.6.3-.2.5 0 .9q.3.4 0 1l-.1-.1v.1l-.2 1.8.2 1.9q0 1 .3 1.9c.3.5.1 1.1.2 1.7l.1.3q.6 1 .6 2.3 0 .6.4 1h-.7l-3.5-.3h-3.6c-1.1 0-2.2.6-3.2.4-1.2-.2-2.2.5-3.4.4q-.7.2-.8 1l-.2.2-.1.2q-.2 0 0-.2l.3-.2q0-.5-.2-.8-.7.4-.6.2-.1-.3-.4-.2c-.7.3-1.7 0-2.2.7q-.1.3-.5.3h-.2l-.2-.2q0-.3-.1-.1-.2.3-.5.3h-.2v-.6q.2-.4 0-.6 0-.7.2-1.3l-.1-.7a3 3 0 0 1-.1-2.2q-.1-.2-.4-.2 0-.7.4-1.2v-2.9q.2-1-.6-1.4-.2 0 0-.4c.1-.3-.1-.7.3-.9.3-.1 0-1.2-.4-1.6v.2-.2q.3-.8.2-1.2t-.7-1c.7-.5.7-.6.3-1.5q-.4-1.3-.4-2.6 0-.4-.2-.7c-.3-.3-.7-.6-.2-.9l-.4-1.5-.7-1.4-.4-.4-.5-.5-.5-.4-.6-.3.3-.1-.2-.3-.5-.1h-.4l-.5-.1-.3-.1h-.6l-.2.1-.6.5c-.3 0-.1-.5-.5-.3-.6.4-1.4.4-1.6 1l-.1.4-.3.2.2-.2.2-.4q-.9.2-1.2 1-.5 1.2-1.5 1c-.3.3 0 .7-.1 1l-.1.3v-.3q-.2-.3-.5.1c-.7 1.1-2 1.4-2.7 2.4q-.9.5-.9 1.4-.3 0-.5.3l-1.3 1.5q-1 .8-1.2 2 .6-.3.8.2 0 .3-.6 0l-.2-.2q-.6 0-1 .8c-.5.7-1.4 1.2-1.6 2.1l-.2.2c-.9.4-.7 1-.6 1.6q-.5-.2-1 .2c-.3.4-1.4 2.1-1.5 2.6q0 .4-.3.5c-.7 0-1 .8-1.2 1.2q-1 1.3-1.9 3c-.1.4-.9.8-1 1.5-1 .4-1 1.8-1.9 2.3-.3 1-1.2 1.6-1.7 2.6q-.5 1.3-1.4 2.2l-.2.2q-1 2-2.3 3.7-.3.4-.2.8c-.1.3-.5-.2-.6.3-.2 1-1.2 2-.5 2.7-.3.3-.5 0-.7.2-.3.4 0 .6 0 .8q.3 0 .3.3l-.6-.3q0-.4-.5-.2-.3.4-.3.7 0 .6-.3 1.2-.3-.2-.5.4-1 1-1.4 2.3-.5 1-1.3 2l-.2.2c0 .8-.7 1.4-.8 2.2 0 .5 0 1.2-.8 1.1l-.3.2c-.3 1.1-1.2 2-1.2 3.2q0 .4-.3.8-1 .7-.5 1.5v.3-.3q-.5-.2-.8.4c-.2.4.2.4.3.6v.4q-1.4.5-1.5 1.4h.2-.2c-.3.3 0 .8-.2.9-.5.1-.3.6-.5.8q-.4.2-.2.5.2.1.5-.2l.3-.2v.2h-.3l-.5 1.6v.1l-.4-.5q-.3-.1-.4.2 0 1-.8 1.6c.1 1-.7 1.8-.7 2.8q0 .5-.3.5-.6 0-.4.5t-.2.7q0-.5-.3-.6l-.3.4c0 .4.3.2.4.3 0 .5-.9.6-.5 1.3q0 .2-.3.3-.6.1-.5.9 0 .4-.5.8c-.5.7-.6 1.6-1.2 2.3v.1l-.6.5q-.7 1-1.2 2.4 0 .6-.4 1.2c-1.1 2-1.8 4.3-3 6.4-.4 1-.4 2.2-1 3-.8 1-.6 2.2-1.3 3.2-.4.5.2.8.3 1.2v.3l.2.2-.1-.1-.1-.4q-.3-.2-.8-.2l-.1.6q-.3 0-.4.2c0 .7-1 1.4-.5 2.3.1.3-.2.9-.6 1q-.4.2-.4.6c.3 1.2-1.1 2-1 3.1-.8.6-.5 1.8-1.3 2.5l-.2.6q.1 1.2-.7 2.2 0 .2.3.3h.1l-1 1-.3.7-.7 2c-.2.6-.5 1 0 1.5q.1.3-.2.4c-.2.2-.1.7-.6.7s-.6 1-.4 1.7l.2-.2-.2.2q-.8.9-.5 2.2c-.8.2-.8.2-1 1.2q0 1.4-.9 2.4l-.2.8c.1.4.3.8-.3.8-.2 1-.9 1.7-1 2.7q0 1-.3 2v.2-.1c-.1-.1-.3-.4-.4 0s0 .9-.5 1.3c-.2.3.3.6.2 1-.2.3-.5 0-.5.3-.1.6-.6 1-.4 1.7v.6-.6q-.5.7-.3 1.4c0 1 0 1.2-.7 1.6q.1.6.4 1v.3-.3q-.5-.1-.5.4c0 1.3-1.1 2.2-1.2 3.4q-.7.9-.2 1.6v.1q-.3 0-.4.5-.1 1-.5 1.9-.6 1.1-.3 2.3.3-.3.6-.2l-.1.4h-.2l-.3-.2q-.5.4-.6 1.2c-.2.9-.7 1.7-.5 2.7l-.2.2c-.7.8-.2 1.3 0 1.8q-.4-.1-.6.6l-.4 3.1q.2.5 0 .6c-.6.4-.5 1.2-.6 1.7 0 1.2-.4 2.3-.3 3.5 0 .6-.4 1.3-.1 2q-.4.7-.3 1.5 0 .8-.2 1.5v3.3q.3 1.5.2 2.9v.3c.3 1.5 1 3 1.2 4.7q.1.5.5.7c.3.4-.4.4 0 .8l.5.7.5.7q.6.7 1.4.6c.2.5-.2.5 0 .8q.5.4.8.2l.4-.2q-.1.5-.5.5-.4.1-.2.5t.8.6l.6.2q.4 0 .7.3 0 .4.5.6a5 5 0 0 0 3.3 1h3.5l1.3-.7q.8-.3 1.2-.8c.3-.5.8-1.1 1.4-.7l.4-.2 1.4-1.3q.8-.7 1-1.5.1-.5.6-.8c1-.3 1-.9.9-1.5v-.2q.1 0 0 .2c.3 0 .6.3.9-.2.2-.4-.2-.5-.2-.7v-.5c1.4-.2 1.4-.2 1.7-1.2h-.2q0-.1.2 0c.4-.3 0-.8.4-.9s.3-.6.6-.8q.3-.2.2-.5c-.1-.3-.4.1-.6.1l-.3.3v-.2h.3l.8-1.6v-.1q0 .3.3.5.3.1.4-.2.1-1 1-1.6c-.1-1 .8-1.9.8-2.9q0-.4.3-.5.6.2.5-.5-.2-.3.2-.7-.1.6.2.6t.3-.4-.4-.3c.2-.4 1-.6.7-1.3q-.1-.2.2-.3.7-.2.6-.9 0-.5.5-.8l.4-.7 1 4.2c0 .8.7 1.5.6 2.3 0 1 .7 1.5.7 2.4 0 .5.6.4 1 .5l.2.2h.2q-.1.1-.2 0l-.2-.1q-.5 0-.8.2.4.4.2.4-.3.2-.2.3c.3.5 0 1.3.8 1.6q.4.3.1 1-.2.1 0 .4c.9.5.1 1.7.8 2.3-.2.7.6 1.3.4 2q0 .3.2.5.7.6.6 1.5.1.1.4 0l-.1 1v.7q.5.7.6 1.4 0 .8.8.9.2 0 0 .3c0 .2.3.4 0 .7s.1.9.6 1.1v-.2q.1 0 0 .2c-.1 1-.1 1 .9 1.5-.6.5-.6.6-.1 1.2q.6.9.6 1.8 0 .4.3.5c.2.2.7.3.1.6.4.6.3 1.5.8 2l1 1.3q-.4 0-.4.2.4.4.5 1c-.1.3.5.2.7.5 0 .2-.5.2-.3.4.3.4.2 1 .7 1.1l.3.1.1.2-.1-.2h-.3q0 .5.6.8 1 .4.4 1.3l1 .2h.1q0 .1-.1 0-.5.2-.2.5c.8.6.6 1.8 1.3 2.4q.1.9.9.9l.1.5q.6.5 1 1.2.4 1 1.4 1 0-.4.3-.6.4 0-.1.5l-.2.2q0 .5.5.9.3 0 .5.3 0 .3.3.4.5.5 1 .5l.2.2q.4.6.7.5.4 0 .8-.3-.1.4.4.7a5 5 0 0 0 2.7 0q.2-.2.5 0 .4.3.7.2.4 0 .7-.2l1.5-.5q.8-.3 1.3-.9l.7-.4q.3-.2.5-.7.7-.1 1-.8l.4-.6.5-.4q.2-.6.6-1.1l.6-1.2q.2-1 .8-2v-.2c.4-1.2.4-2.4 1-3.4l-.2-.6c0-.3.6 0 .4-.4-.2-.8.3-1.8-.6-2.2.1-.3.5 0 .5-.3q0-.4-.4-.5l-.3-.1h.6q.3.2.6 0v-.7q-.4-.3-.3-.9.3 0 .2-.4.5-1 .2-2 0-1 .3-1.9v-.2c-.3-.5 0-1.2-.3-1.8-.2-.3-.5-.8.2-1v-.3c-.1-.8.3-1.7-.3-2.5q-.3-.4-.1-.7c.5-.6 0-.9-.3-1.2v-.1.1q.5 0 .6-.5-.2-.3-.6-.3-.2 0-.2-.3.9-.8.6-1.4h-.2.2c.1-.3-.4-.5-.2-.7.4-.2 0-.5 0-.7q.2-.3 0-.4-.3 0-.4.3l-.1.3-.2-.2.3-.1-.2-1.2v-.1l.4.2q.5 0 .3-.3-.4-.6 0-1.3c-.5-.6-.2-1.5-.6-2.1v-.4q.6-.1.2-.5c0-.1-.3-.3 0-.5q0 .5.4.3.2 0 .1-.3-.2-.3-.5-.1c0-.3.6-.6 0-1l.2-.3q.5-.2.2-.7v-.2l.1-.1.3-.3.3-.2h.2l.3-.5.2-.5q0-.6-.7-.4h-.3q1-.4 1.9.2v.2q-.2 0-.5.6 0 .4.3.4.3.3.7.3 0 .7.7.3l-.5-.3q.8-.2 1.6.4l2 .8q.7.4 1.5.5l.3.1h.3q.3.5.7.6.6 0 1 .2l.3.1 1.3.5h.4l-.2.2h-.5l-.3.2-.2.1h-.1v-.3l-.2.3v-.2q-.2-.2-.5-.2v.1q0-.2-.2-.2v.4h.1l.2.2-.2-.2c-.1.3-.4.5 0 .6h.3q.4 0 .5-.3h.2l.2.1q0 .8.4.1-.2 1.1.6.5 0 .4.2.1l.1.1q0 .5.3.3h.2q.3.3.6.2h.3q0 .2.1.1h.2v.1c.5.3 1.1 0 1.6.3l1.7.5.7.2.3.1h1.4l.3-.9.1-.4h.6v.4l.3-.2h.2l-.2.3q-.2.9-.7.4 0-.3-.2 0h.2l-.2.2h-.1l-.3.2v.3l1.8.5q.3.3.8-.2h.2v.1q0 .8.3.5h.4l.8.3.8.1q.9 0 1.8.3.3 0 .4-.4l.1-.1v.1q-.1.6.2.4t.4-.4l.2-.2-.1.2v.4l.6.1q.1.1.3-.1v-.7h.2q0 1.1.5.8l.3-.4v.3q.5.4 1 0 .2-.4.3 0 .2.5.6.2.4-.4.7-.2.5.4 1 .2.7-.4 1.1.1h.2q.3-.5.6-.2l.4-.2q0-.4.3-.4.2 1.4.7.5.2-.2.5 0c.4.5.8.2 1.2.2q.4-.1.1-1h.4v.4q0 .4.2.5h.5q.3-.4.5-.1.2.1.3-.3v-.7h.6v.3q-.1.5.1.4c.4-.2.8 0 1.1-.3.3.4.5.1.7 0q.3-.5.6-.3c.8.3.9.3 1-.9h.2l.3-.9v-.4q.3 0 .5-.4h.4v.1q.4.7 0 1-.1-.3-.4 0h.2-.2v.2h-.2l-.6.4q0 .4.5.3v.3l.1.2v-.5q.5.7.9.2.1-.2.4-.3l.6-.2 1.9-.3h.5l.5-.2q.5-.1.7-.7h.5q.2.8 1 .3l.7-.3 1.8-.5 1.8-.5 3-1.2 1-.4q.5-.2.5-.8l.2-.1-.2.1c.3.5.6.2.9 0l.6-.7.1-.3v-.5q-.6 0-.8.4-.3.3-.6.2-.4-.2-.2-.5.1-.4.5-.2l1-.6c.2.2-.1.5.1.7l.4-.2v-.2q.2 0 0 .2.2.4-.3.7l-.2.3q.1.3.5.2l1.1-.6q.4-.2.5-.5 0-.4-.5-.6-.7 0-1-.6c1-.3 1-.3 1.6.4l.3.3.1.2q.1.2.1 0l.1-.4v.5l.3-.2q.4-.1 0 .1l-.1.2v.1l.1.2q.5.6.5 1.2c-.3.8 0 1.5 0 2.2s.4 1.4 0 2.2v.3c.5.5.3 1 .3 1.5l.2.8q.3.3.4.8c-1 .3-1 .4-.5 1.4q.3.6 0 1c-.5.9-.1 1.8-.1 2.6q.1 1.2 1 .5.7-.6 1 .2.4.7.1 1.4l.4.5v.4l-.2.2q-.6 0-.8-.8l-.2-.7c-.1-.6-.5-.3-.7-.4q-.5 0-.5.5v1q.4.5.1 1.1 0 .4.3.7.5.4 1.1.1h.1q-.1-.5-.5-.7h-.4q.1-.2.2-.1l.2.1q.3 0 .6-.5.6 1.1.8 2.3v.1q0 .6-.3.4-.7 0-1.3-.4-.5-.3-.5.3l.5 2.5c-.4.5 0 1 .2 1.5l.3 1.5c-.2 1.8-.1 1.8 1.3 2.6h.1q-.2-.3-.2-.7l.7.1q0 .4.2.6l.7 3.5q-.5 0-.6-.9-.2-.8-.8-1.5l-.3.3q0-.2-.4-.2l-.1.2q.2.3.5.2-.6.9 0 1.8.5.5.7 1 .4 1.3 1.1 2.3.3.5.7.5.3-.2.3-.5l1 2-.5-.2q-.4-.1-.4.1t.3.5q.5.2.8 0l.6.7v.2l1.3 1.2-.5.2q.5 1.2 1.4 1.8a5 5 0 0 0 2.3.8h1.7l1.7-.2q1.6-.3 2.7-1 .8 0 1.2-.5l1.1-.8q.7-.3 0-1 1.3.2.5-.6l-.1-.1-.2-.1v-.2.1l.2.1c.2-.2.4.3.7.2v-.1q.2.3.4 0 .1-.2-.2-.5.5 0 1-.4l1.1-1.6q.7-.9 0-1.4-.3-.3-.2-.4.3-.2.4.1 0 .3.3.4h.3c0-.6.7-.7.7-1.2q.2-.4.2-.9l.6-.6v-.1c0-.8 1-1.3.8-2.2.8-.4.4-.6 0-.9q-.2-.1-.2-.4c.3.2.7.6.9.3q.5-.5.6-1.2l.4-1.3c.7-.5.5-1.3.7-2q.3-.7 0-1.4l-.5-.7q.6.4.5.6.9.5.8-.2v-.7q0-.5.2-.8t0-.7h.1q.7 0 .6-.6 0-1.3.7-2.4l.8-2.8-.1-.2h-.4q.1-.1.4 0l.2-.2c0-.6.6-1 .3-1.7v-.2q.5-.3 0-.8-.3-.2.2-.2.3 0 .3-.2l.2-.9v-.4l.1-.2v-.3l-.1-.2-.5-.4-.3-.2v.2l.3.4q-.4-.2-.4-.4-.1-.2 0-.2.3 0 .4.2l.3.1.4.3-.6-.7q-.2-.4 0-.3l-.1-.3-.1-.2.2.2.6 1v-.3l-.5-1.5.1.2v-.1l.5 1-.5-1.8-.3-.8c-.1-.4.1.2.2.2l.7 2.2-.2-.9q0-.2.1.1v.1-1l-.3-1.2.3 1.2.2.9v-1l.2.8q.2-.2.2.3.1.4.2 0 0 .9.2.9l.1.2q0 .6.3.7l.1.3.1.2.2.5q.2.8 1 1.3l.3.5q0 1.1 1 1.5.3 0 .2.2-.2.6.4 1t1 1.2q.2.4.7 0c.3-.5.3-.1.4 0h.1v.1q-1 .6-.3 1 1.4 1.1 2.8 2.6l.6.5h.7v.7q.3.3.6.1l.3-.4q-.1-.2-.4-.2l-.3-.2h1.3l-.2.5q-.6.7 0 1l1.4.6q.4.2.5-.3 0-.3.3-.2.4.1.2.4t-.1.5l.4.2.7.2.7.1.7.2.8.1 1 .2.9-.3h.3l.5.1.5-.1.9-.4.2-.1q.5-.2.2-.6h-.1l.2-.2v.2l.4-.4h.1q1.7-1 2.6-2.5 1.5-2 2.2-4.3.8-1.8 1.2-3.7.5-.6.6-1.7l.3-1.8q.3-.9-.4-1M1722.7 578v.2zm-61.8-47.3v-.2zm31.5 169.8v-.1zm32-7.8v.1h-.1q0-.2 0 0m.7-8.2v-.2q0-.3 0 0zm-5.6 21v-.1zm-26.7-22.5q0-.1 0 0m-18.2 4.1q-.2.1-.3-.2v-.1l.4-.1zm-5.5 1.6q-.2.3-.6.5v-.3l-.1-.2h.1q.2-.4.6-.7l.2.3v.2zm-4.3.9.3-.3q0 .2-.3.3m-.4 0q-.5.2-.3-.4l.3-.4h.1l.2.2-.1.6zm.2-.9q0-.2.1-.1v.3zm-1.5.2-.2.4q-.3.6-.7.3c.2-.1.2-.6.3-.5q.3.2.4-.4v-.1h.1zm-3.1.8v.2h-.2q-.2-.4-.1-.7 0-.2.3 0c0 .2.2 0 .3.3l.1.2q0 .2-.3.2zm-1.1-.2.3-.1.2.2v.2h-.5zm-2.7.5-.5-.2-.1-.1v-.3l-.1-.2h-.2v.5h-.5l.2-.5h.3q0-.2.2-.2v.4h.3l.2.1.4.2zm-6.9-1.3.3-.3h.1v.4l-.1.1h.1v-.1l-.4.3zm-2 .5q-.3 0-.1.2h-.6v-.3l.2-.1-.3-.3v.2h-.2l.2-.2q.1-.2.3-.2v.4q.3.4.9-.2zm-3.8-1.3q-.3 0-.4.2l-.2-.2.2-.3zm-20.4 11.6q.3 0 .1.2l-.1.2h-.2v-.3zm-.6 11v1h-.2zm-.2 1.8v-.2zm-24-147.3.2.3v.3q-.3-.1-.2-.5m.6-.3v-.7zm5.8-10.2c0-.3.5-.6.5-1h.2zm85.8-23.1-.9-1q.7.4 1 1m16.6 21.7.1.2h-.2l-.5-.7zm1.5 2.4-.2-.1zM1668 688.3l-.1-.3q.3.2 0 .3m-.4.4v-.2zm-6.7.9q0-.5.7-.3v.3zm1-.4v-.1m-3.6.5v.3q-.2 0-.2-.3 0-.4.2-.5h.3q0 .4-.3.5m-6.5-.4v.2l.3-.9h.2v.3q-.2 0-.5.4m-.8.4q.1-.8.5-1l-.2.7q.3-.2.4 0l-.2.3zm10.9-165.8-.2-.1q.1-.2.2 0zm19.5-1.3h.1m-30.7 166.1v.1h-.1zm0 .7v.2zm31-167.4-.3-.3zm-6.7-6.4-.3-.3zm-52 168.1.2-.6.5.4q-.3.4-.6.2m.6 1.7-.1.1v-.3zm-.2 1.9-.1-.3zm-.6 2.2q.1 0 0 .1zm0-3v-.5h.3zm.3 3.6v.1zm-35.4-19.2.4-.7v.6l.1.3.2.7q0-.4-.3-.4zm.7 1.2.3 1.2-.3-.6zm32.1 46.3v.2zm2.4-25.9.2.2q.2.4 0 .4h-.2zm.3 1.2v.1m0-1.6h-.2q.2-.6 0-1t0-.4.4.2zm0-3.9q0-.2.2-.3l.4.3-.4.2zm.3-5.7-.2.2v-.3zm23.7 5.9v-.2h.1zm3 1.2h.3v.1q-.3 0-.5.3zm8.4.3h.2zm8.3-1.7q0 .4.2.3l.2.2h-.6zm2.6.4q0 .3-.2.2v-.3zm25 18.8v-.2l.2.1zm26.7-131.7-.3.3-.3-.6zm-3-4.9h-.2l-.2-.3q0 .3.3.3m-.7-1 .2.6-.2-.3zl-.2-.2-.3-.5.2.3zm-11.3-18.4c.7.3.5.6.5 1h-.1q-.5-.5-.5-.9 0-.3-.3-.5c-.3-.5-.4-.2-.5 0v.3l-.2-.3v-.3l.2-.4q.5.9 1 1.1m-2.5-2.4q.2.5.6.3v-.2l.1.1h-.1v.6l-.8-1zm-1.7-2.5q.3 0 0 .4l-2-3zm-2.2-3.6-.7-1 .3.4zm-1.6-1.5.2.2zm-1.4-2v.3q.3.3.1.5l-.2-.4.1-.1zm-4-5.6q0 .3-.4.2zm-.5.2h-.3l-.1.1-.1-.1h.2zm-.1-1.4q-.7.1-.2.8l.2.4c-.5-.6-.6-.6-1.3-.8l-.2-.3q.4-.2 1.5-.1m-2.8-2.1c-.4-.1-.3-.5-.5-.8q.4.3.5.8m-1-1.3-1-1.2.3.1q0 .2.3 0l.2.1zm-3.5-4-.3-.1q-.3-.2-.6-.1 0 .3.3.4t.2.5l-1.1-1.1v-.2l.3.1q.3 0 0-.4.3.3.6.2l.3.5zm-1.3-1.6-.1.4-.8-.9.3-.1zm-9.8-9.2.2.4h-.2l-.1-.3zm-.9-.4h-.4q-.2-.1 0-.2h.2q.3 0 .2.2m-2.5-1.6.3.1zm-.5-.4h-.2l-.7-.3zm-2.6-.8h.2q-.3.2-.2 0m-1.9.3q.2-.2.2 0l-.2.2q-.1.2-.2 0zm-1.9 1.8q0 .4-.3.7 0-.4.3-.7m-18.5 28v.1m-3.3-2.6.1.2-.1.1zm-.2-7 .1.1v.2zm-2.4-14.3.1.2v.2q-.2 0-.2-.2zm-12.2 3.7v.1zm-8.7 10.9h-.2zm-3.3 4.6.2-.1q.3 0 .1.2 0 .3-.2.2t0-.3m-3 5.8v.2zm-1.7 2.9-.1.1zm-.2-.6v.2zm-1.1 2.7-.7 1.1zm-1.5 0-.1.1m-.5 3.2-.4.8-.4-1c.4 0 .3.7.8.2m-1.2 1.9v.1l-.1.3v-.3m-1.2.9v.2l-.1-.1v-.2zm-.6 2v.3-.2m-.8 1.6q0-.5.5-.8zv.2zm-1.6.3.2.1h.2v.2l-.2-.1zm-.6.5q0 .3-.2.4-.1.2-.2 0zm.5 1.6.2.4-.8 1.4-.3.4c.1-.7.8-1.2.9-2.2m-1.2 0v.3l-.2.1v-.2q0-.3.2-.2m-.2 2.8v.1m-.3-1.2q0-.2.2-.1v.2l-.2.1zm-1.8 2.3 1 .2c-.6.3-1 .7-1-.2m-.6 3.8.2-.2v.4h-.3zm-.3-1.2v.2zm-.3 1.5c-.4-.1-.2-.5-.4-.6.5 0 .2.3.4.6m-.5 1.4h.2q-.2.5-.5.5 0-.4.3-.5m-2 3.3q.3-.4 0-.6.3-.6.8-.7c.4-.2 0 .5.2.6q-.7.6-1 1.9c-.3-.5 0-.8 0-1.2m-.7 1.8q-.2 0 0-.1m-.2 1q0 .4-.3.7v-.4c0-.1.1-.6.3-.4m-1.7 2.3.9-1.3.1.1q-.5.6-.5 1.3 0 .4-.3.3-.3 0-.2-.4m-.3 1.8-.1.2zm-1.3 1.1q.2.1 0 .4 0 .3-.2.2l-.2-.4zm-.6 1.5v.3zm0 1.2-.3.5h-.2zm-1.2 1 .1-.2zl-.2.1zm-.4 2.1-.4.8-.3-.6q.4-.3.7-.2m-1 1.6q.1-.3.4-.3l-.2.4zm-1.1.7.3-.2v.5q-.2.5-.5.6l-.1-.2q0-.4.3-.6m-.4 1.7q0 .2-.1.1v-.3zm-12.8 27.7v.3h-.1zm-2.6 6.9q0-.3.1-.1v.2q0 .1-.1 0zm-4.9 13.7.2-.1v.3h-.2zm19.8-46.4.1-.4q.3-.1.4-.6l.3-.4zm-27.2 74.6-.1.2zm-1 5.7q0-.2.2-.2l.1.1-.1.3q-.2 0-.2-.2m0 17.6v-.1m.5-.6c.1-.3.5 0 .6-.3l.1.5zm1.4 3.4-.2-.1.2-.1h.1zm.7 0q0-.3-.3-.5v-.1l.7 1q-.3-.1-.4-.4m1 1.5v-.2l.1.1m1.7 2.4v.2l-.2.1h-.1l.2-.1zm0-.8-.5-.6q-.4 0-.7-.7l.8.7.1.1 1 .7.7.4-.8-.2zm.7 2.2-.4-.3q.3 0 .5.2.1.1 0 .1m1.9.5q-.4 0-.3-.2h.6zm1.7-.1q-.3 0-.3-.2l.2-.1.3.1zm.2-1-1.2-.1-1.3-.2.4-.2 1.6.4zm.8 0h.1m.7-.2h.1m1.7 1.1-.5-.8.8.2q.2 0-.3.6m.2-1.4-.2.2v-.1zl.2-.3v-.1zm1-.3v-.3q0-.2.2-.3.2.3-.2.5m.8-.8v.1zm.6.6v-.2zm.3-1.2h-.3v-.1l.2-.2.2.1zm.8.6c-.5-.1 0-.4-.2-.7.4.2 0 .5.2.7m.8-2q.4-.4.5-.3 0 .3-.4.3m2.7-2.9c0 .3-.3.5 0 .6q-.3.7-1 .7c-.4 0 .3-.5 0-.6h-.1v-.1h.1q.8-.5 1.4-1.7c.2.5-.3.8-.4 1.1m1-1.6v-.2h.1zm.5-.9v-.2l.3-.6v.4c0 .1-.2.6-.3.4m2-2.3-1.1 1.2-.2-.1q.7-.6.8-1.3 0-.3.3-.3t.1.5m.2-1v-.2zm.2-.8v-.2zm1.3-1.1q-.2-.1 0-.4 0-.4.3-.2l.2.4zm.7-1.6v.1-.3zm0-1.1.4-.6.2.1zm1.4-1-.2.2v-.3zm.4-2.2.4-.8.3.7q-.4.3-.7 0m1-1.6q0 .3-.3.3zm1.2-.7-.3.2v-.5q.2-.5.5-.6l.1.2q0 .4-.3.6m5.6 18.2-.1-.2v-.1l.1.1zm1.7 5-.2-.1v-.1h.2zm3.8 10.1v-.2q.2 0 .2.2zm17.8 16.3h-.2v-.3h.3zm6.3-10.3v-.7l.8.6c-.4.1-.6-.4-.8 0m.7-4.9v-.8l.1.1q.2.4-.1.7m.4 2.3.2.1zm-.2-5.4v-.9l.1-.4c.3.6-.1 1.1.3 1.8zm.4-4.2-.2-.1zv.2zm.2-.5-.3-.1v-.2q.2 0 .3.3m-.1-3.3-.2.1q0-.4.3-.4t-.1.3m.1-1.7c-.2.3-.1-.4-.4-.3q.2-.7 0-1.6c.5.2.3.5.4.8q0 .3.4.3 0 .5-.3.8m.5 11.4h-.3l-.1-.1h.5zm0-3.3v.1l-.1.2-.1-.1zm.1 1.2.1-.1.2.1v.2q-.2 0-.3-.2m.3 1.5v-.3h.2zm.2-4.7-1 .1c.4-.3.6-.8 1-.1m-.6-2.2v.1q-.1 0 0-.1m.3-.7c-.4.2-.4-.2-.7-.3q.6 0 .7.3m.4-17.5h-.2l-.2.1v-.3q0-.3.4-.2zm.5-.7v.2l-.2-.1v-.2zm12.3 5.7q.1-.5.5-.8-.2-.3-.5.2v.1q-.5.6-.6 0l.4-.5h.1l.3-.1q.7.4 1.6.6v.2q-.2.1 0 .3h-.6l.2-.5h-.4l-.1.3h-.2q0-.1-.2 0l.1.1-.3.2zm3 .7-.2-.2v-.3q-.2.3 0 .4c-.2 0-.5.3-.3-.3q0-.1-.2 0v-.1q0 .3-.2.3t-.5-.2q.6.1.7-.4h-.4v-.4l.5.2v.1-.1h.3v.2h.2v-.1l.8.2-.2.4-.1.3h-.3m.7-.1q.2-.5.3-.2l.2.3c-.2.3-.3-.2-.5-.1m1.5.6q-.4 0 0-.4v-.6h-.3l-.3.5-.2.2q-.2 0-.2-.2v-.6l.6-.1h.5l.2.4v.4c0 .6-.2.4-.3.4m2.2.2q0 .2-.1 0zc-.2.1-.3.5-.5.3 0-.2.4-.3.1-.5l-.7-.4v-.2l1.3.2zm3.8.8-.1-.3v-.1l-.2.2-.4.2.1-.6q0-.5.3-.1 0 .3.1.2l.3-.6h.2v.1l-.2.5q.2.4.4 0v-.1l.2.1v.4l-.2.2.3.2c-.2.2-.5-.2-.7-.4m4.1.7q0 .2-.2 0-.2-.4 0-.6c.1-.3.2 0 .2 0h.5v.3l-.3.2zm1-.3-.1-.5.4.4zm2.9.6q-.1-.5.2-.5c.2-.2.5-.1.8-.5q.2 0 .2.3h-.1l-.2.4q0-.3-.3 0l-.1.2-.3.4q-.2 0-.2-.3m1 .5v-.2h.4zm1.3-.4h.1m.9 0h.1q0 .1-.1 0m3 0h-.3zm2.3-.3v.4zm.1-1 .6-.3q.2 0 .3.3zm2.6 1v-.3zm4.7-2.9-.2.6-.2.2v.4l-.2.1-.3.1v-.6q.4-.1.4-.4v-.3zm-1.5 1.4h-.3zm2-.8.3-.2.1.1v.1zv.3h.3v.2h-.3q-.7 0-.1-.5m2.2 0a3 3 0 0 1-1.5.5v-.3l.2-.2h-.2l-.1-.2v-.1l.2-.1v.4h.3q.8 0 1.5-.8 0 .6-.4.7m2.4-.6q-.1.3-.3.1l.1-.2.3-.1zm3-1.4q-.1.4-.4.3h-.2c-.5.8-1.2.7-2 .7l-.3.2-.5-.3-.3.4q-.1.3-.5.4-.2-.2-.2-.6.1-.5.5-.3l.4.1c.2-.3 0-.9.7-.9 0 .3-.3.5 0 .7q.5.1.8-.4l.4-.1.2.4.2-.2q0-.4-.3-.4.4-.2.5-.6h.2v.5l.2-.1.1-.1q0 .3.4.3m1.3 0q-.4.4-1 .6-.2-.8.6-1.2l.5-.6q-.1.7 1 .6zm2-.7-.3.2q-.2 0-.3-.2c-.5-.7.2-1 .5-1.5q0-.2.2-.1h-.2c.1.4-.3.7-.1 1v.1q.4-.5.8-.5zm1.4-1-.3.3q-.3 0-.4-.3l.4-1.2.3-.1zm6-2.6.2-.3v-.3l-.3-.1-.2.3v.4h-.2l-.2.2q0-.2.2-.2v-.2q-.2-.4-.6 0-.2.5-.6 0l.7-.5q.4-.4.9 0l.2-.2h.3l-.2.3v.2l.2.2h.3l.3.4v.6q-.6 0-.6-.2t-.2-.4q-.3 0-.2-.2m.3 3.5q0-.3.4-.3.8-.3.2-.7l-.6-.5q-.3-.4 0-.7.4-.3.6.2c.3.5.3 1.2.9 1.6q.2.3-.3.5-.5 0-.4.5 1 .1 1.1 1.4l-.7-.7q-.6 0-.4-.6c-.6.2-.7-.4-.8-.7m1 2h.1q.5.5.5 1.3.1.3-.2.4l-.4-.1-.5-.8.6-.7m-.3 2.4q.3 0 .5-.2.3-.4.6-.1t0 .6c-.2.3 0 .6-.3.9q-.4.4.2 1v-.2q.2.2 0 .3 0 .6.4 1.2.3.8-.5.6-.6 0-.3-.8v-.2c-.7-.3 0-1.2-.5-1.6-.3-.3 0-.6 0-1h.5v-.2h-.5v.1q-.3 0-.1-.4m1.3 5h-.2q0-.2.2 0m-.3 2.6q-.7-.3-1-.9c-.2-.4.3-.8.2-1.2q0-.2.3-.4.3 0 .3.3c0 .5.6.6.5.8q-.1.7.4 1v-.1.4q-.3.2-.7 0m.6 3.6.2-.2v.3zm-.4 3.7h.4l-.2.2h.3l.2.2q0 .4.2.7v.6q0 .6-.4.3c-.5-.2-.8-1.5-.5-2m-.8.3v-.2h.1zm1 3.5q-.1-.7-.7-.8 1-.4 1.3.5 0 .4-.2.6-.3 0-.3-.3m1.2 2.9-.9-1.4c-.2-.6.2-.5.3-.6.3-.3.2.2.2.2q.3 0 .3.3l.2 1.6zm1 6v.3q-.2-.2 0-.3l-.2-.3q-.4-.1-.3-.5.2-.2.5-.1h.2l.4 1.1zm15.2 5.5v-.1zm2.4-3.1.1.1zm3-5.1v-.2l.2.2zm.6-1.3.1-.8q.4.5-.1.8m1-2-.2-.4h.2l.3.3zm.9-3.6q.4 0 .6.3-.4 0-.6-.3m.6 1h-.2l-.1-.2h.2zm1-4.7q0 .2-.2 0v-.2h.3zm1-3q-.4-.4.2-.5zm.9-4.4h.1m.8-1.3q-.4 0-.2-.2v-.4l.3.4zm.2-1.5.1.2v-.2m.8-6.3-.1-.4v.1zm.6-.9v-.4zm.1 1.7v-.2zm.1-1.4v-.6q-.1-.3 0-.1zl.2 1.3zm.3.9v-.9zm.8.9v.5l-.1.1v-.4zm1.7 3.6-.2.2q-.2 0-.1-.2l.1-.2q.2 0 .2.2m-.5-1q.3-.4.7-.4-.6.8-.7.3m1.5 3.1-.3-.1v-.1h.3zm1 1.6q-.1-.1 0-.2h.2v.2m1.4 1.8h-.3q0-.2.2-.3 0-.2.3 0zm1.9 2.2h.2zm.8 1.3q0-.5.4-.8 0 .5-.4.8m1.2 0q.7.3 1 .7-.7 0-1-.8m2.9 2q-.5.3-.6.8-.4-.4 0-.7c.2-.1.4-.5.6 0h.1zm.6.5q-.3 0 0 0m2 .9q-.5 0-.7-.4h.2l.5.2zm1.4.9-.4-.2v-.3h.3zm1-.6h.3zm10.9-13.2"/></g><path fill="#fffcf4" d="m1605.2 609.7.2.1zm5.4 5.2h.3l.1.2-.2-.1zm-.2 0v-.2h.2zm-.5-.6h.2l-.2.2zm-.4-.4h.2l-.1.1zm1.6 1.5.4.2.2.2-.2-.1h-.1l-.1-.2v.1zm32.7 1.4q-.1.2-.4.3l-.1.4-.5.8-.3.4-.4.5v-.1l-.2.3-.3.5-.3.1h.2l-.2.3-.1.2q-.2.3-.6.4v.3l-.3.1h.3l-.2.2-.1.2-.5.6-.1-.2-.1.3-.1-.1v.3l-.4-.2v.5l-.2.3-.4.4-.4.2-.5.5h-.4l-.2.5v.2h-.1l-.5.4h-.3v.2l-.2.2-.1-.1q-.3.8-1 .8l-.2.3-1 .5q-.3 0-.5.3l-.4-.2.2.3h-.3l-.1.3-.5.2-.8.4q-.4.2-.7-.2.2 0 0-.1c-.1-.1-.4-.3.1-.5v-.2q.5-.1 0-.2l-.4.5.3.7-.5.5h-.2l-.2.1h-.5v-.3q-.2.1-.3.5l-.2-.1h-.2c-.3 0-.7-.4 0-.3l-.1-.4-.1-.3v.3q-.3.2-.3.6v.2q-.1.1-.2-.2h-.1v.2l-.5.2-.3-.1-.6.2h-1.1q-.3-.2-.4-.5l-.1.1.2.4q-.4-.2-.7 0l-.2-.3v.3l-.4-.1-.4-.2-.3.1q-.3 0-.4-.4l-.1.2h-.3v-.2h-.6q-.1-.2-.3 0l-.2-.2q-.6-.1-1-.6v-.1h-.2v.3l-.2-.3h-.5v-.2l-.3-.3-.4.1-.1-.2h-.2l.2-.3-.7.3v-.4l-.3.1-.2-.2v-.1h-.2l.1-.2-.4-.1-.5-.4-.5-.1.1-.1q0-.3-.3-.5v.2l-.5-.1q-.2-.4-.6-.6l-.2-.4-.1.1q-.3-.2-.4-.6l-.2-.2v-.2l-.1.2q-.1-.3-.4-.3v-.1q.3 0 .1-.2h-.1l-.4-.2-.5-.6-.1-.2.1-.1q-.2 0-.5-.3h.1l-.2-.3v.1l-.1-.2-.4-.2q.2-.2.4 0h.2l-.3-.3-.3.2-.2-.4-1-1.2-.1-.1-.2-.5-.2-.2v-.3l-.4-.3q0-.3-.2-.4-.3-.4-.3-.7h-.2l-.2-.4-.1-.2-.2-.3v-.3c-.2.1-.2-.3-.2-.3l-.3-.5h-.1l-.2-.5-.5-.7-.2-.6q0-.2-.3-.5v-.2l-.4-.7-.2-.5v-.1l-.2-.3-.2-.4-.1-.4-.4-1-.2-.3v-.2l-.1-.1v-.2l-.1-.2.2.3.1.2.1.1.1.1.2.3.2.2.1.2q0 .2 0 0l-.1-.2-.2-.3-.1-.1-.2-.2q0-.3-.2-.3l.2.2-.2-.2v-.1l.2.3.1.1.2.2.1.2h.2l.3.5-.1-.1.3.3.2.2v-.1l.3.3.3.4-.3-.1.7.5.2.2.1.1.2.2v-.1q.3 0 .4.3l.2.1.2.3-.1-.1h-.2l-.2-.3v-.1h-.4l.2.2h.1l.5.3v.1h.2l.3.4-.2-.3h-.2l-.5-.4-.1.1-.3-.2q0-.3-.4-.6l-.1-.1.1.2-.2-.2v.1l.1.1q.3.1.2 0v.2l.2.2.1.1.3.3h-.1l-.2-.2.1.2.2.2v-.1l.3.2-.1.1h-.1l.3.4-.2-.4h.1l.1.2.3.2v-.1l-.4-.4-.2-.3v-.1l.2.2.1.1v.1l.1.2.2.1.2.4-.1-.2v-.3l.3.3.2.3.3.5v.1h.3-.1v-.1l.2.1v-.2h-.1l-.1-.1.2-.1v.2l-.1-.1q.3.3.3.7h.4l-.1.1h-.3v-.2l-.2-.1h-.2l-.2-.1.2.2h.2q0 .2-.1.1v.2h.2v-.1l.1.2v-.2l.4.4h.1l.4.1h-.3v.2l.2.1v-.2h.3l.3.1v.3h.2v-.2l.1.1-.1.1h.2v.2l.2.1h-.2q-.2 0-.2.2h-.3v-.2h-.2v-.2l.1-.1-.1-.2-.1.2h-.4l.4.1-.1.2.1.1h.3v.2h-.2v-.1h-.1l-.1-.1h-.2v.1l-.2.2.2.3h-.2l-.1-.2h-.2l.2-.3h-.4l-.1-.1v-.1h.2l-.1-.2h-.2q-.3 0-.4-.4l.1.1v-.1l-.1-.1v-.2l-.1-.3-.2-.2v.2h-.1l.1.1.2.2q-.4 0-.5-.6l-.1.1v-.2l.4.2v-.2l-.4-.2-.2-.3v.4q.1.4-.2 0v-.2h-.1l-.2-.2-.1-.3v.2q-.2-.4-.5-.3h.3l-.1.2h-.1l.1.1h.2l.2.1q0 .3.3.5h-.1v-.1h-.2v-.1l-.2-.2q0 .2.3.4v.2l.2.2v.2l.1-.1h.2q0 .2.3.3h-.2q0-.2-.2-.2v.1l.1.2v.3-.2q.3 0 .2.2l.2.1q0-.2.1-.1v.3h-.2.2l.1.3.1.1.1.1.1.3v-.3h.2l.2.2v-.2l.2.3h-.2l-.2.2h-.2l.1.3.2-.3q0 .2.2.2v.2l.1.3h.3l.8.4-.1.2.2.1h.3l-.2.1.3.1.2.3.1.2.3.2.1.3.2-.1.2.3v.1l-.2.2h.2v.2h-.1v.1l-.1.2.3.1h.1l-.1.2.2.3v-.2l.2-.2h.1v.2q.2 0 .3.2l-.1.1.1.2v.2h.2l-.1.2h.3l.5.3-.4.4.2.1.2-.1v.2h.4l-.2-.1.2-.2-.2-.2v-.4h.2l-.1.3.2.2.1-.1h.1v.2h.2l-.1.4h-.3q0 .4.3.6.2 0 .2-.3l.2.1h.1l.1.3q.4-.2.8.2h.4l-.1.3-.4-.2-.1.1h-.1q-.2.1 0 .4l.4-.4v.4l.7-.5-.1.4.2.5-.1.2q.2 0 .3-.2l-.1-.3v-.2l.2-.1v.4h.3l-.1.4-.1-.2-.1.2.4.2v-.4l.2.3.2-.4v.5q-.4 0-.2.2l.3.1v-.2h.3l.2.6v-.5l.2.2v-.3q-.3 0-.1-.2l.1.3h.3-.2l-.1.6.5.1v-.2l.2-.3.2.2h-.1v.2h-.1l-.1.1.2.1.1-.3.4.3v-.2q.3-.5-.1-.6v.3h-.2v-.3l-.2-.1.1-.2-.2-.1h.4l.1-.2q.1 0 0 .2h.2l-.1.2.3.1-.1-.4h-.6q0-.3-.2-.4v.3h-.6c-.2-.2.2-.4.2-.5q-.2-.2-.5 0l-.3-.1h-.2l-.5-.6v.3l-.2-.2v-.1l-.3-.2-.1.2v-.2h-.4v.2l-.1-.2v-.5l-.2.1-.1-.1-.2-.1-.1-.2-.1-.1-.3-.4h.2l-.2-.1h-.3l-.3-.2.1-.2.3.2c.2-.2 0-.4.2-.6l.1.2v-.2h-.3l-.1.1-.1.2h-.2q0 .2-.2.3l-.1-.2h-.3l.3-.1v-.3l-.2.2h-.1l-.2-.3h-.2v-.2q.3.1.4 0l-.3-.2h-.4l.2-.2h.4l-.4-.2.2-.1-.2-.2h.2v-.2.1q-.3 0-.3.3l-.2.3q-.2 0 0-.2v-.4l-.1.3-.3-.2h-.3q.3-.2.2-.5l.1-.1-.2-.4v-.2l-.2.1.3.4-.3.4h-.1l.2.2q-.3 0-.4-.4l-.2-.2-.2-.2.5-.3-.1-.1h-.2l-.3.1-.4-.2.1-.1-.3-.3h-.2l-.3-.4h.2l-.2-.3h-.2l-.4-.3q.3 0 .2-.2l-.1.1-.3-.2h-.1.1v-.2l-.1-.3.3.1h-.2l.3.1h-.2l.1.2q.3 0 0-.2h.2l.3.3v.2h.2v-.2h-.2l.1-.2h-.2v-.2c.3 0 .3-.4.5-.2h.2v-.2h.1v.5h.1l.3.2-.2.2.1.1h.1l.1.4.2-.2.1.2.5-.3v.1l.3.3h-.6v.2h-.1l.2.2h.3l-.3.4.5-.1h.2v-.1l.3-.4v.3h.4q0 .2-.2 0l-.1.2h-.2v-.2l-.3.4h-.2q.3.2.6 0h.1l-.1.1h-.1v.4q0-.5.4-.2l.1-.1h-.2q.2-.2.5-.2l.2-.1v.2l.5.3q-.2.1-.4-.1l-.3.3q0-.2-.3 0h-.2l.3.2.2-.1.1.2v-.2h.5q-.3.1-.4.4h-.3q0-.2-.3-.2l.2.3.3.3s.4.1.3.3h.2l-.2-.3v-.3l.7.3-.2-.2-.3-.1c0-.2.4 0 .4-.3l.1.1v.1l.2.4-.1.2v.5-.2h.2-.2q0-.4.3-.3l.3.3.2.3h-.2v.1l-.3.1.4-.1h.2l.2-.1v.1h.5q.5-.2.3.1h.2l-.2.2.1.2.2-.3v-.4l.2.4.2.2v.3l.2-.1h.1v.2l.1.2q0 .3-.2.1l-.1.3.2.2-.3.2h.4l-.2.4h.4v-.4l.2-.2v.2h.1l-.1.3h.4l.3-.4-.1.3v.1h.6-.2v.4l-.2-.1-.1.2.1.2v.2h.2v-.2q-.3 0 0-.2l.2.1h.3l.1-.4h-.4l.2-.1v-.3l.3-.2q0 .2.2.3v.1q0 .2.2.3-.1.3-.4.3l-.2.1h.2l.1.2q.1-.3.2-.2v.2h.3q.2 0 0-.2h.5l-.2-.1.2-.3-.4.2.2-.3h.2l-.1-.3.3.2v.6h.2v.4h-.3v-.3q0 .3-.4.5h.4v.1h-.4v.2l.5-.1q.1.2-.1.5l.2-.1q0-.3.2-.2l-.2-.3.4.2q0-.3-.2-.4v-.5h.2v.5l.4-.2c-.2-.2-.1.2-.3 0v-.3h.2l-.6-.2h.2l.2-.4q.2 0 0 .3 0 .2.3.4v-.2l.1.1h.2l.3-.2v.3q0-.2 0 0h.2v.6l.3-.1h-.2l.1-.1v-.5h.2v-.1h.4l-.1.3-.1.4q.3 0 .4-.3h.1l.1-.2q.1.2 0 .2-.2 0-.2.4c.3 0 .3-.4.5-.4l.2-.1h.2q.1-.2.4-.1l.3.1.2.4h-.2v.4-.2h-.4.2l.1-.2h-.4l-.2.3h.3l.1.3-.4-.2v.4h.5v-.4q.3 0 .1.4l.3-.2v-.2l.4-.2v.4l-.4.1q.1.2.3 0l.1.2h.1v-.8l.2-.1v.3l.2-.2h-.2v-.4h.2v.1l.2.3v.2h-.1v.2h.5l.2-.3v-.1h-.1q0-.3.2-.3v.1l.2-.1v-.5q.2 0 .2.3h.1v-.1h.5l-.2-.2.2-.2v.2q.3 0 .4.2v-.2h.1l.5-.2h.1l-.1-.2h.1l.4.5-.2.1.2.2h.3l-.1-.3-.2-.2q-.2 0-.1-.2l.4.1-.1-.2h.1v-.2l.1.1h.4l.3-.5q0 .3.2.4v.2q-.2 0-.2-.2v-.3q-.3.2-.1.6h-.3l.3.3h.2q-.2-.2 0-.2h.2c.1.2-.2.3 0 .5v-.2l.2-.3-.2-.3h.2v.2h.2v.1q.3 0 .4-.3h-.7v-.4l.2.2.1-.1.2.2v-.3l.2.1h.3v-.6l.2.1h.2l-.1.4.2-.4v-.3l.4-.1.2-.2q0 .3-.2.4-.2.5.3.3v-.2l.1-.2-.1-.3h.2l-.1-.2v-.3l.3-.1v.1l.6.4.2-.2.3.2q0-.2-.2-.2l-.4-.1h-.1v-.1h.1l.3-.4v.1l.2-.1-.2-.1.2-.1-.2-.3q.1.2.2 0l.2-.4h.4l.4-.3.8-.6q.1-.4.6-.4v.2q.3 0 .5-.2l-.2.1-.1-.2.2-.1.1-.2h.3v-.1l.1-.2v-.1q-.2.2-.3.1l.6-.5h.3q.1-.3.4-.3 0-.2.2-.3v.2l.1-.2h-.1l.1-.2.3-.2.2-.1v-.3h.1l.3-.3v.2h.1q0-.3.3-.5h-.1l.1-.2h.2l-.2.2v.2h.2l-.2.1h.2l.3-.4-.2-.1.3-.2.2-.2h-.2l-.1-.2-.1.4q-.2 0 0-.1l-.1-.1.2-.3q.2 0 .2-.2l.2-.3.4-.3v.2-.3l.3-.1h-.2l.2-.2.1.1v-.1q.2 0 .3-.2l.2-.1.3-.6h-.1l-.1.2h-.1v-.2h.2l.2-.4h.1l.6-.8.5-.6.1-.2.2-.2.3-.5.3-.2v-.2h.1l.1-.2v.2l-.2.1.4-.5-.1.3.1-.2v-.2l.2-.2.1-.2-.2.6h-.1l-.3.7-.1.3v.1l-.3.5-.2.3-.1.3-.3.4-.2.3-.1.3-.2.1h.1l-.1.3-.4.6-.2.2-.1.4-.1.1-.4.8-.6.7-.3.4v.3l-.2.1-.1.4q-.2 0-.3.2h-.2v.3l.2-.2-.2.3-.1.1h-.1l-.1.1v.3h-.3.2v.3l-.4.1h.2q0 .2-.2.2v.1l-.2.3h-.1q0 .4-.3.5-.5.8-1.2 1.3l-.3.6h.2l-.3.2h-.2l.2.3q-.2 0-.3-.2l-.4.4h-.1q0 .3-.3.4v.3h-.3q-.1.2-.2 0l-.3.2.1.1v.3l-.2.1v.2-.1h-.1l-.2-.1v.4h-.2q-.3.4 0 .6h-.6v.3l.2-.1h.2l.4-.3q-.3-.1-.2-.4l.3.3v-.4.1q.3 0 .5-.3l.4.2.1-.3-.2.1-.3-.4q.3 0 .5-.3h.4v-.6.2l.2-.1h.2l.2-.1v-.4h.5l.2.2v-.3c0-.2-.3 0-.4-.2q.2 0 .3-.4v.2h.2l.1-.2q0 .4.3.3l-.2-.2.2-.3-.1-.2q.2-.1.2.2c.3 0 0 .1-.1.2l.4-.2-.2-.1v-.2h-.2l.3-.4v.4l.3-.1-.1-.2.4-.5-.2-.4.3-.1-.1.1v.2q.2-.2.2-.5h.3l.1-.2h-.1l.1-.3h-.1l.1-.2.2.2v-.3l.1.1h.2l-.2.2q.3 0 .3-.2t0-.4h.1v-.2l.1.1v-.4l.3-.3.1-.1.2-.2.4-.4v.2h.2q.1-.2.2-.1v-.2h.1l-.1.5q-.2 0-.1.3m-31.6-.3h.1l-.1-.1zq-.2 0-.3-.2l.1-.2.2.2h.1l.3.1v.1l.2.1h-.3v.2h-.3zm-2.8-2.8.1.1zm6.5 5.2v.3l-.2-.1zm-1.8-.9h.1v-.2h.1zm-7.4-6.7-.1-.2zm5 4.7h.2zm-3.1-2.7v-.2zm6.9 5.6h.2zm-.1-.2-.1.2zm-8.6-7.3.1.1zm-.5-.5h-.2l.4.2zm7 6.3.2.2v.1l-.2-.1zm3.7 3 .3-.2.1.1-.2.2zm-.7-.8v.2h-.1zm-7.8-6.3-.4-.3h.2zm1.5 1.6h.2l-.1.1zm9.7 6.8.2.2h-.3zm-14.5-11.4h.1l.1.1.2.3v-.2l.1.1v-.2h-.3zm13.6 11v.3h-.2zm-.3-.2v.3h-.2q0-.2.2-.3m-10.1-7.7h.2zm-2.6-2.8.1.2zm11.1 9.6.1.1zm-1.2-.8.2.2zm5.3 3h.2l.2.3q-.2.2-.5 0zm-.4-.2h.2v.2h-.2zm-6.4-3.6h.3zm-1-.5v-.2l.1-.2q.2 0 0 .2zm8.8 5 .3-.2zm-13.2-9.4.1.1zm11.5 8.6h.1v.2h-.1zm2 .7.1.2h-.2zm-9.3-5.2v-.2zm4.9 3.5v-.2h-.1zm-10.1-8.4-.2-.2zm8.5 7.6v-.1h.2v.1zm4.7 2.8q.3 0 .1-.1v-.4l.2.2-.1.4zm-15.9-13.2v-.1l-.3-.3zm9.8 9.2.1.1zm4.8 3.4h.2l.1-.2h.3v.4h-.1l-.2-.2h-.1l-.1.2h-.1zm-8-5.9v-.1zm6.5 5 .1-.1h-.2zm-1.7.9.3-.1q0 .2 0 0v-.3l.1-.2h.2l.3-.3q0-.3-.2-.5l.1-.1-.1-.2-.3-.2q0 .2.2.3l-.1.1h.2v.4h.1-.4v.3-.3l-.3-.2-.1.5-.2-.1-.1.2.1.2.4-.1-.2.3zm-8-8.8h.2l-.2-.1zm9.4 7.9.1-.2zm-6.5-5v-.2l-.2-.1v.2zm-3-3q0-.2-.2-.2zm12.3 9.7.1-.4-.1-.1zm7 .4v-.1h.1zm-11-2.8.1-.1v-.1zm-7-6-.2-.2v.1zm19.8 8.2h.1zm-10.3-.8h.3v.2zm4.8 1.5h.1m-18.2-13v-.1m11.7 10.7.1-.2zm-5.5-3.5.3-.1v-.2l.1-.1h-.2l-.3-.1q.2-.2.3 0v-.3l-.4.2-.1-.2q0-.2-.3-.2 0-.2.3-.2l-.2-.2q0 .3-.3.5h.3l.3.6.2-.1zm18.7 4.7h.2v.1zm-15.6-2.8v-.3zm3.6 2.3-.1-.2zm7.9 1.8.2-.1v.2zm8.4-3.7h.2v.1zm-29.2-9.4q0 .2.1.1zm24 12.4q0-.1 0 0m-13.3-2.3.1-.1zm-6.9-5.8h.1v-.2l-.4-.2v.1h.2zm3 2.7v-.1h-.1zm20.2 4 .2-.1zm-15.5.3h.5v.2l.3.1q.1-.1-.1-.2v-.4c-.1-.2-.3 0-.4-.3l-.3.4h.2zm5.9 1.9q0 .3.3 0v-.2c-.2 0-.1.4-.3.2m9-1.9v.2zm1.6-.9h.2v.1l-.2.2zm-9.7 2.9h.2zv.2l-.1.4zm-18-13-.2-.2v.2zm26.4 11.2v-.3zm-2.2 1.5-.2-.2h.3l-.1-.3h-.5v.3q.2.1.3.4zm-5.2.5-.2-.2v.1zm4 .6q.1-.3.4-.5l-.3-.3.4-.1v-.1q.4 0 .3-.2l-.3.1-.1-.3h-.2v.4h-.1v.2h-.1l.1.2v.1h-.2q.3.2.1.5m-22.4-13 .1.1zm-1-1.2v-.1m12 11 .2.2zm10 2.7q0-.3.2-.5v.4zm2.9-1.2-.2.1zm4.6-2.7v-.1h.5l-.4.2zm-30-10.4v-.2h-.2zm17.8 14h.1l-.1-.1zm-6.5-3-.2-.2q0 .2.2.2m-.4-.2v-.1zm-2.4-1.7q0-.3-.2-.4l-.2.1.2.2zm10.6 5.2v-.1m-5.7-2h.2l-.1.2h-.1zm18.8-2.3q-.3 0-.2-.2l-.1-.1v-.2l-.2-.1v.1q-.3 0-.2-.2l-.2.4.2.2h.1v.1h.3l-.2.2h.2zM1610 616v-.2h-.2zm4.3 4.1.2-.2h-.1zm-6.7-6.3h.4q-.2 0-.4-.3zv-.2h-.2zm30.8 4.4.1-.1zm-9.3 6.1-.1-.2-.2.2zm8.6-5-.3-.2.1.2zm-.3.4.1-.2-.2-.2-.3.2h.3v.6l.4-.1zm-20.6 1.9v.2l-.1.2-.2-.2zm3.7 2.6v-.6l-.5.4.2-.1zm-5.1-3.3-.1-.2q-.2.2 0 .4m-.7.2.1-.2.2-.2.1-.2-.2-.1v.2h-.4l.2.1zm-8.3-9.2v.2l.3.1q0-.2-.2-.1zm17.1 13.1q0-.4-.3-.3v-.2.4zm21.8-14 .2-.3zv.1h-.1v.2zm-24 13.6q.1-.4-.2-.6 0 .3.2.5m3.7 1.2-.1-.2.2-.3q0-.2.3-.3l.1-.1q-.2-.2-.5 0l.1.2-.3.1h-.2v.1l-.2.1q.2.3.4.2 0 .3.2.2m20.8-15.6-.1.2h-.2v.2l.2-.2zm-14.2 13.4-.2-.2h-.2v.3zM1609 615v-.2h-.1zm33.9-.7v-.2l.1-.2h-.2.1q0 .3-.3.4h.2l-.2.1zm2.9-3.8v-.1l.2-.2h-.2l.3-.2v-.1h-.2v.1l.1-.1v.2l-.1.1v.3m-34.5 7.1q0 .3.4.5v-.3l-.2-.3zm-5.3-5.4.1.1h.2l-.1-.2q.2.3.1.4h.1l.2.3.2.3v.2h.3l-.1-.2h.2l-.1-.2h.2-.3l-.3-.4h.1q-.2-.3-.4-.3v-.1l-.3-.1zm16.8 12.5v-.1h-.2v.2zm13.7-4.4h-.2v.1zm-27.7-5.5v-.2h-.1zm4.8 5 .1-.2zm-7.9-8.6v.2h.2v-.1zl-.1-.2h-.1zm32.5 7.8-.1-.2-.2.2zm-33.3-9-.2-.3zm22.5 15.2q.5-.3-.1-.4zm8.7-4.5h-.3zm-.3.1-.2.1zm4.4-3.7h-.2l.2-.1h-.2zm-.5.7.1-.2q.2 0 .1-.2v-.1l-.3.2h.2zm-20.2 6v-.2h-.1zm4.9 1.3v-.1h-.2zm-.3 0v-.1zm22.2-15.4.1-.2v-.1l-.1.1-.1.4zm-28 13.6v-.4h-.2l-.3.3q.2 0 .3.3zM1645 611v.2zm-29 10.3-.2-.1v.3zm-6.8-6v-.1m-2.2-2.7-.1-.2zm21.6 12.3.2-.4q-.2 0-.2.2h-.1l.1.4q0 .3.2.2zm-11.3-2-.1-.1.2-.3.1.2.3.2v-.2q-.3 0-.4-.2l.1-.1q-.2-.1-.2.1v-.2l-.2-.2q0 .3-.2.4v.1h.1v.2zm-13.3-14.3.2.2zm17.6 15.9v-.2l-.2.1zm-1.3-.2.3-.1h.2l-.1-.2v.2zm5.6.7.1.3h.2zm-.2.1-.1-.1v.1zm-5.7-1v-.4h-.1zm10.6-.1h-.2zm-.2 0-.6.2.2.2.3.1.2.1zm-.9.8q.3-.2.2-.5v.1q-.2.1-.2.4m17.1-15.9.2-.2zm-5.5 7.1h-.2zm3.6-4.3h-.2zm-29.2 9.4v.2h-.1zm16.2 2.5h-.1v.1M1615 621v-.1h-.2zm24.5-3.3v-.1h-.2zm-.8.5.2.1-.3.2q.3.2.5-.3zm-5 4.4-.2-.2h-.1l.1.3zm7.9-7.3v.1zm4-5q-.2.2 0 .2zm-.8 1q.2 0 .2-.2zv.1m-4 5v-.2zm-8.8 7.3v-.2l-.2.1.2.3zm4.4-3v-.2h-.1zm-.2 0v.1zm7.5-7.7.2-.2v-.1zv.2zm-18.3 12.7h.2l-.2-.4v.3h-.1v-.3q-.4.2 0 .5zm17.7-12v.1zm-36.8-1.5q.2 0 .3.2h-.2v.1zm12.2 11.3v-.2zm-5.9-4.3h.2l-.1-.1zm25.7-.4v.2h.1zm-15.8 6.3v-.1zm-1-.1v-.3zm19.4-8.5h-.3zm-16.7 8.8h-.2v.2zm.8 2h.4l-.3-.1v-.3h.2l-.1-.2v.2-.2h-.3v-.4h.2l.1-.5q-.3.2-.2.5-.2 0-.3-.3-.3-.2-.4.2-.2-.3-.6 0v-.8l-.1-.2-.2.5q.2.3 0 .5h-.3l-.2.1v.1h.1l.5-.1q0 .3.2.4v-.2h.2v-.1h.2l-.2.4.3-.2.3.3v-.5h.3v.4l.2.1zm-2-2v-.2zm18.5-9.7-.1.2zm-20 9.4v-.2h-.2zm-15.8-13.7-.1-.2zm1 1.5-.2-.3.4.4zm27.5 9.9v-.3zm4-3.2v-.2h-.1zq0 .1.1 0m-10.6 6.1-.1-.2h-.1zm5-2h-.2zm-17-1.7v.2l-.2-.1zm5.6 3.3v-.4h-.2v.3h-.2zm19.4-8-.2-.2q0 .3.2.2m-9.9 7.4v-.2zm-12.6-1 .4.3q0-.5-.4-.2m12.3 2.4h-.3l-.2.1v-.1h-.2l-.2-.2v-.3l.2.1.1-.3h.2v-.3l-.2-.2v.2l-.3.3-.3-.2q0 .4.2.7l-.6.2q.1.2.4.1l.3-.2q.2.1.2.5-.4 0-.4.2h.2v.1l.2-.2h.1l-.1-.1h.1v-.2q.3 0 .5.3zm14.4-14.4.1-.1zm-12.7 12.7v-.2l-.3-.1zm-5.9 1.6-.4-.2.2.1-.1.1v.2zm9.1-3.9-.1-.1zm7.3-7.5.2-.1zm4-5.5-.2.2zm-24.1 16.7h.4l.1-.1-.3-.2v.2l-.3-.1zm-14-10.6.2.3zm30.1 4.3v-.1h-.3zm3.3-4v.2zm-13.6 10.4-.1-.3zm-19.2-10v-.4l.1.2zm32 .8-.2.1zm-1.3 1.5v-.2zm-34.4-7.6-.1-.1zm16.8 14.8-.1-.1zm8.6-.2.1-.3.1-.3-.2.3zm3.4-2.1v-.2h-.1zm7.7-7.2h-.2zm-32.1.7v.2zm33.1-1.9-.2.1v.1zm-30.5 4.6v.2zm9.7 6.8h.6q0-.2-.2-.2l.1-.1-.3-.3-.1.1q-.3 0-.3.3zm11-2.1v-.3zm-11.9 1.5h.3l-.3-.3zm5.8.5v-.1h-.1zm5.8-1.8.3-.1-.3-.1-.2.1zm-11.4 2.1.2-.3.2-.5-.4.1.1.1zm1.4-.6q0 .2 0 0m-19-17.6v.2zm23.6 18v-.2h-.1zm9.8-5v-.2h-.1zm-1.8 1.6-.1-.3-.1.3zm-16.3 1.7v.2zm15.5-1.5v.3l.2-.1h.2zm-12.5 2.8h.2v.2h-.2zm9.7-.9v-.2h-.2zm-12.2.2v-.1h.3q0 .3-.3.1m-13.2-12.6v-.1h-.1zm-.5-.8v-.1zm15.4 14-.3-.1v-.1h-.2.2v.1l-.1.1h-.2.4l-.2.1v.3zM1610 617v-.1m5.2 5.1q-.2 0-.2-.3zm-6-6.2h-.2zm2.2 3.2.2-.2v-.2l-.2.2h-.1zm-.2-.6v-.2zm17.2 8.2-.1-.3-.1.2-.6-.5.1.3h.2v.4l.3.2zm-18.7-10v-.1m-2.8-3.6v-.1h-.1zm32.8 6-.2-.1v.3zm-22 5 .2-.1h.1v.2zm-5.5-4.6-.1-.2zm-.3-.3v-.1h-.1zm17.2 7.3-.2-.6v.4h-.4v-.1h-.1v.2h.3v.2zm-8.3-.9v-.1m11.3-.2-.2-.3q0-.2-.2-.2l.1.4zm-6.3 1.2h.2q0-.2-.2-.2zm7.3-2.1v-.2h-.1zm-6 3v-.3h.2v-.3h-.2v.3q-.2 0-.2-.3.3 0 .3-.4h-.6v.1l-.2.1.4.3zm-7.4-2.3q0-.1 0 0m11.2.5-.3-.2.1.3zm-18.1-5.5v.2zm4.6 3.7h-.2zm-2.6-1.2q.2-.3.6-.2-.3 0-.4.3zm25.6-4.2h-.2v.2zm-8.9 6.9h-.3l-.2.2h.4zm2.5-1.2-.1-.2h-.1v.2zm-11.8 2.4-.2-.1-.1-.4-.1.4.2.1v.2zm11.1-1.8q.2-.2 0-.4zm-5.8 1.9-.2-.2v.2zm5.2-2-.2.1q0 .2.2.2zm-19.2-3.5v-.2zm-1.7-1.4.4.1-.4-.5zm-1.4-2q-.2 0-.3-.3h-.3l.3.1v.4zm27 3.8h-.2v.1zm.8-.5-.2-.2v.3zm-3.8 3.1s-.2-.3-.3 0v.3l.3-.1zm-26.5-9.3v-.1m17 12q0-.1 0 0m10.8-3.7v-.1h-.2zm-2.5 1.8-.1-.2h-.1zM1609 616v-.2h-.1zm17.4 10.8h.2l-.3-.3q-.1.2.1.3m4.7-1.3v-.1h-.3v.2zm-6.4 1h-.2zm-13-7.3-.2-.2zm5 4.7q.3 0 .4-.2l-.2.1-.2-.1zm-5.7-5.3v-.2h-.1zm16.7 7.8h-.2v.2h.1zm-6.4-.2.1-.3-.2-.1v.4m18.8-7.5h-.1v.2zm-.2.3-.1.1zm-16.8 8v-.1h-.1zm13.2-4.5-.1-.1zm-7.9 4.7q.2-.3.5-.3l.1-.3h-.3l.1.1-.2.2v-.2h-.2zm5.6-2.8v-.3l-.2.1zm-24-5.8v-.2zm-.8-1q0 .2.2.3v-.2zm5.6 5.7-.1-.2-.1.2q-.2.2 0 .3zm17.7 2.1h-.2l-.2-.1.1.2zm-20.3-4.3v-.2zm12.3 6.3-.2-.3v.3zm14.4-7.5v.2zm-.3.3.2.2.2-.1zm-28.3-1.3-.3-.2.1.2zm31.8-2.9v.2zm-3.7 4.8-.1-.3zm-6.6 5-.4-.1.2.2zm-19.2-4.2h.2zm11.1 5.8v-.2zm-.1-.1-.3-.2v.2zm-13-7.7v-.3zm28.5.4q.3-.2 0-.2zm-6.3 5.2v-.2l-.1.1zm-5.7 2.2c.2-.2.5 0 .7-.2l-.2-.1-.5.1zm-8.5-1.3-.3-.1.2-.3h-.3q-.2.3.2.6zm20.9-6.2.2-.4v-.3l-.2.4q-.2 0 0 .3m-4.7 3.8q0 .3.3.2zm-18.5 1v-.2h-.1zm9.4 3.2.2-.1q.2 0 .1-.2zl.3-.4q-.2 0-.3.2v-.2h-.2v.2h.2zm5.8-2-.4.1.1.2zm-.7.3h.2zm-13-.7q0 .2.2.2zm4.7 2.2v-.3l-.1-.2.3.3q-.2-.6-.6-.1v.2zm-7.5-3.9v-.2zm-.8-.6-.1-.2zm18 2.6-.1-.2zm-19.1-3.3q.2.1.4 0zl-.2-.3zm17.8 4.1q-.2 0-.2-.3-.3.1-.1.4zm4.5-3h-.2v.2zm-5.2 3.4q.1-.3-.4-.4v.4zm-8.3.4v-.2zm-10.3-6.3h.3l-.2-.2zm4.6 3.8v-.3zm-.8-.5v-.2l-.2.1zm-5.9-6v.1m11.6 8.8-.1-.2zm-.9-.2v-.3zm11.3-.7q.1-.1 0-.2h-.1zm-8 1.7.1-.2h.3v-.2l-.2.1h-.4zm.9-.2h-.2zm10.6-3.5v-.2h-.1zm-6.1 3.1c.2.4.5 0 .1-.2zm-1.2.3.2-.2zm5.5-1.2c.2-.2 0-.4.2-.5l.1.1.2-.1h.3l-.2-.2.7-.6v-.3q-.5 0-.6.4l-.1-.1-.2.2-.1-.1c-.3.1 0 .2-.2.4l-.2-.2h-.1l-.1.5-.6.2-.4.2-.3.2v.2h.3l.2.1v-.3c.3-.2.4-.5.6 0l.3-.3v-.2zm-19-2.8v-.2zm17 3-.2-.1.1.2m4.3-2.2h-.2l.3-.3-.2-.2-.5.6zm-8.8 3.8-.3-.3.2.6zm3.4-1.2h-.2v.2h.1zm5.3-2v-.4l-.2.2-.1-.1-.4.1v-.3l-.3.2.3.2h.3l.2.2zm-5.6 2.3-.1.2zm-1.6.6-.1-.2h-.2v.3zm-2.4.4v-.3q-.3 0-.2.3zm-9.8-3h.5zm13.4 2.3v-.2h-.1zm-.9.3h.4v-.3l-.6.3.2.4zm-1.3.1h.2zm4.6-1.4.1-.2zm-.7.7q.5-.2.3-.7-.4.2-.5.7l.3-.3zm-6.4 1.2v-.4zm14.8-8.2h.2zm-11.7 7.7h-.2zm14.1-10.5v-.2zm-23.7 9q0 .2.1.1m6.1 1.9v-.2h-.2v.2zm-1.8-.2v-.2h-.2zm16-6.3-.2-.1-.1.2zm-.8.7v-.3zm-11.5 6v-.4l-.2.2zm-2.8-.1v-.3l-.1.1zm6-.5v-.3h-.2v.3zm-8 .2.4-.1q0-.2-.3-.2l-.2.3m6.9.2v-.4q-.3.1-.2.4zm14.1-11.5h-.1zm-9.6 9.8.2-.1c-.2-.2-.4 0-.5-.2v.2zm4.1-3.2v-.2l-.2.1zm-13 5v-.2h-.3v.1zm-7.3-2.5-.3-.3-.1.2zm-.7-.3.1-.2h-.2zm6.2 2.6-.1-.2v.1zm16.8-6.9h-.1zM1614 624h-.2zm13.3 4.8c.4 0 .1-.3 0-.3zm-11.5-3.3v-.1zm27.4-8.8.1-.3-.3.3zm-23.6 11v-.2zm22-8.6-.1-.1zm-18.4 9.7v-.2zm15.3-6.2v.1zm-12.4 6.3h-.2zm15.6-10h-.2v.1zm-26.4 6.5v-.2zm23.4-2.8v-.1h-.1zm-7.6 5.3h-.3v.2h.4zm-14-1.5h-.2v.1zm12.7 2v-.1h-.2v.1zm3.9-1.6q.3 0 .2-.4-.3.2-.2.4m4.6-3.7v-.1zm-11.5 6v-.2h-.2zm-8.2-1.7-.1-.1zm21.5-6.2q-.2 0-.1.2zm-17.8 7.6v-.1h-.1zm-1.7-.3v-.2l-.1-.1-.1.2zm6.6.5-.2.1zm-15.1-6.2.1-.1v-.1zm24.5 1.9.2-.1zq0 .3.2.3zm4-4.2v.2zm-10.9 8.2.3-.2v-.1l-.4.1zm-6.8.4v-.2l-.2.1zm.5.1v-.2zm15.5-6.5h-.1zm-12.2 6.5-.1.1zm-.5.3.3-.1-.2-.2zm9.3-3.6h-.2v.1zm4-3.8v-.1m-.8.8v.2zm-14.9 6.4h-.2v.1zM1644 616h-.2l.1-.1h.2zm-5.8 7.6v.1zm-6.9 4.8-.1-.1zm5.8-3.7.2-.1zm.3-.1.2-.2zm-14.4 5.1v.2zm40.4-19.5v.2zm3.4 7 .1.2.2.2-.1-.3zm0-.2h-.2l-.1-.4v.5zm-.5-.7v.3l.2-.2zm-.3-.5v.2zm1.2 2q-.1.2.1.5l.2.1-.1-.1v-.1q0-.2-.2-.2h.1zm32.4-3.7-.2.4-.3.2-.6.5-.4.3-.4.5h.1l-.3.2-.4.2v.3l-.1-.1-.3.2h-.1q-.4.2-.3.6h-.3l-.2.2v-.2l-.1.2h-.2l-.5.4.1.1h-.3l.2.2h-.3l.1.4-.3-.2v.1h-.3q-.3 0-.5.3l-.2.3-.5.3v.3h-.7v.1q-.3 0-.4.3l-.1.2-.1-.1-.3.1.1.2q-.7-.3-.9.3h-.3l-.7.4q-.1.2-.4.1v.5-.3h-.5l-.3.1-.6.1q-.2 0-.2.5l.1.1q-.1.4.3.4v.2q.3-.2.2.1l-.5-.2-.2-.7-.4-.2-.1.1h-.2l-.3.1.2.3q-.2 0-.4-.3v.1h-.2c0 .2-.2.7.1.4l.1.4q.2.2 0 .3v-.3q-.3-.1-.4-.5v-.2l-.1.2v-.1h-.5l-.4-.1-.4.1h-.2q-.2 0-.2.4l-.1-.1.1-.4h-.4l-.1.2v-.3h-.2l-.2.1-.2-.2-.3.3v-.2h-.2v.2l-.3-.3h-1.1l-.1.1h-.1l.2-.3h-.3l-.2-.2-.1.2h-.3l-.1-.3h-.2l-.2.2v-.6l-.3.3v-.3h-.5l-.3-.2-.4-.1q0-.3-.2-.3v.1h-.6l.1-.1h.1l-.2-.3q-.3 0-.6-.3h-.4l.1-.2-.6-.1-.1-.1h-.3l.2-.1q-.3 0-.3-.3h-.1q0 .2-.2.2v-.2q0-.2-.2-.2l-.6-.4h-.1l-.2.1q0-.3-.2-.4h-.1l-.2-.1v-.1h-.2l-.1-.3q-.2 0 0 .3v.2l-.3-.2.2-.3-.4-.2-1-.8-.1-.2-.5-.2-.1-.2-.3-.1-.3-.3-.3-.3h-.1q-.1-.3-.6-.4l.1-.1q0-.2-.3-.3l-.2-.2-.2-.1-.3-.1c.2-.2-.2-.3-.2-.3l-.5-.4q0-.3-.3-.4l-.6-.6-.4-.4-.4-.4-.2-.1q-.2-.4-.5-.6l-.3-.3-.1-.2-.2-.2-.4-.3-.2-.3-.7-.8-.2-.3-.2-.2v-.1l-.2-.1-.1-.2.3.6v.2l.2.4.2.2v.2q.2.1 0 0l-.1-.3-.2-.3v-.1l-.2-.2-.1-.3.1.2v-.2l-.1-.2v.1l.1.5v-.1l.1.3.1.1v.3l.3.6v-.2l.1.3v.4-.1l.2.4.2.4v-.2l.1.2.1.2v-.1.5l.1.3v-.1h.1v.2l.1.2-.1.1.2.4v.2l.2.4v-.4l-.2-.3v-.4l.2.3.1.7h.1l-.1.1q0 .4.3.4l-.2-.2.1-.1q0-.4-.3-.7h.2l-.2-.4-.4-.8.1.3-.1-.4h.2-.1v.2q.1.3 0 .2l.1.1.2.2v.2l.2.4v-.3h.1v.4l.1.2h.2v-.2q0 .3.3.5l-.4-.3v.1l.2.2v.3-.1l-.3-.4-.2-.3h-.1l.1.1.1.3h.1l.1.1.1.3.4.2h-.1l-.2-.1-.2-.2.2.5.2.3.4.4h.2v.4l-.2-.2v.3l-.1-.1v-.1l-.1-.1h-.1l.1.2v-.2q.1.5.6.6v.4-.6l-.2-.2h.1l-.1-.3.2.3v.2l.1-.1h.2v.2h-.2l.2.2h-.2l.3.4v.5-.3h.2v.1l.2.1h-.2v.7h.3v.3h-.2.2v.2l.2.2v-.2q0-.3.3-.2v-.2l-.2-.1v-.2l-.2-.1-.2.1v-.2h.1v-.4l.1.4h.3v.4h.2v-.1h-.1v-.5h.1l.2-.1.3.2v-.2l-.1-.1v-.2h-.3v-.4h-.2v.2l-.2-.2v-.2l-.2-.5v.2h-.2v-.2h-.2l-.2-.2-.2-.2h.2v-.1l.1.2.1.2q0-.4-.4-.7h.1-.2v.3h-.1v-.4l-.3-.3.3.1q.4.3.2-.2h-.3v-.2q.1 0 0-.2h-.2l-.1-.2h.1l-.1-.4v.2h.2v-.2.6h.1l.3.4v-.3h-.1l-.2-.3q.3 0 .4.4l.2.1v.3-.1q.2 0 .3.2h-.2l.1.1.1.4v-.4h.1v.2h.4-.2q0 .2.2.2h-.1l.1.2-.2.1.3.1h.1v-.2.1l.2.3h.1v.2l.3.1h-.2v.3l-.1.1.3.1v-.2l.3-.1-.1-.1v-.1q.2 0 .3.2l-.3.1q.2 0 .2.3v-.1l.1.2.1-.1.3.2-.1.2.3.8h.3v.5l.1-.2v.3l.4.2h-.1l.2.2.3.2.2.2h-.1l.3.3h.2l.2-.2v.2h.1v-.1h.2l.1-.2.2.4h.2l.2.1h-.2l-.1.3v.1h.2l.2.2v-.1h.4l.2.1q.3.2.1.3l.4.4.3-.4.1.2-.1.1h.3v.4l-.1-.1-.1.1-.3-.1-.4.1v.2q.2 0 .3-.2l.2.2v.2l.1-.1.2.2.3-.2v-.3l.5.1-.2.4h.2v.2h.3q0 .4.4.6l.1.4.3-.2q-.2 0-.4-.3l.2-.1-.2-.1q.1-.3.4-.1l-.2.4h.4l-.2.7.3-.3h.5l.1-.2v.4h-.5v.3l.4-.2.1.2.3-.2h-.2l.1-.2q.3 0 .4.2l-.4.3h.4l-.2.4.3-.3v-.1q-.1-.2.1-.2l.3.2-.2.1.1.3.5-.3q-.2.1-.2.3h.1l-.1.2h-.3.4l.2.1-.1-.1.2-.4q.3 0 .4.3l-.1.1q0 .3-.2.4h.3v-.1l.1-.1v-.3h.2l-.1.4h.4l-.1.2q0 .5-.5.3l.3-.1-.2-.2q-.2 0-.2.3l-.2-.1v.1h-.4l.4.2-.1.3.2-.1h.1v-.2l.4.2q-.3 0-.5.2-.2 0-.3-.4h-.5l.2-.1q-.3-.2-.4-.5l-.3.5q-.2-.1-.2-.5l-.3-.1-.1-.2-.9-.1.4-.2-.4-.1v.1l-.3-.2v-.2.1l-.3-.3h.3l-.3-.2v.1h-.5l.1-.1h-.2l-.1-.2-.2-.1-.1.1-.1-.1-.4-.2v.2l-.2-.2v-.2l-.3-.3-.2.1.3.3c-.1.2-.4 0-.5.3l.2.1h-.2l-.1-.2v-.2l.2-.2v-.1l.3-.3h-.3l-.1-.3v.2h-.2v-.3l-.3-.1v-.2l-.2.1q.2.1 0 .3 0-.2-.2-.2v-.4l-.2.2v.4l-.2-.4-.1.2-.2-.2v.2l-.2.1v-.1h.1q0-.3.2-.2l.1-.2q.2 0 .2-.2h-.2q0 .2-.3.1l.2-.1-.2-.3v-.3q-.2.4-.5.2l-.1.2-.5-.3h-.1v-.2l.5.4.4-.3v-.2l.2.2-.4-.4-.2-.1-.3-.2-.2.4h-.2l.1-.3v-.3l-.2-.4-.3-.3-.1-.2q-.2 0-.3-.3v.2l-.3-.2v-.2l-.3-.4s0 .3-.2 0h.2l-.2-.3v-.1.1l-.2-.1-.3-.1v.4-.2l.2.2v-.1h.1q0 .4-.1.1v.2l.2.3h.2v.2h-.2v-.2l-.2.1v-.2h-.2c0 .2-.4.1-.3.4v.2h-.2v.1h.5v.2l.2.3.2-.1h.1v.2l.4.1-.2.2.2.1-.3.6h.1l.3.3v-.6h.2v-.2l.2.3v.2l.4-.2v.8l-.2-.2-.3.4.3.1h-.1v.4q.3-.1.1-.3h.2l-.3-.3.4-.2v-.3q.3.4 0 .6l.2.2v-.3h.4q-.5.2-.2.5l-.1.1v-.3q-.3.2-.1.6l-.2.2h.3l.3.5v-.3l.2-.4-.2-.3q.2 0 .2-.2l.2.2-.2.2.4.2h-.3l.2.3-.1.3q0-.5.4-.5v-.4q-.5 0-.3-.3 0 .2.3.3l.4.2s.2.4.3.3v.2l-.3-.2-.1.2v-.2h-.3l.3.4.3.4q-.2 0-.3-.2c-.1 0 0-.4-.2-.3-.2 0 0 .4-.2.4l.2.2v-.2l.5.3.1-.2h.6l-.2.1v.2-.2q-.4 0-.2.3l.3.2h.1l.3.2v-.2h.1v-.3.4h.3l-.2.2v.2h.1v.2l.2.2-.1.1q0 .6.3.3v.2l.2-.3.3.1-.2.2-.4.2q.3.2.5 0 0 .2.3.2h.3v.2l.1.1.2-.2.3.1v-.2l.2-.3.2.2v-.3l.3.3q0-.4.3-.4v.2l.2.2-.4.2v.3l.2-.1h.1l.1-.2.3.4-.1.5.1-.3h.2v.1h.2q0 .3.2.4v-.1q0-.3.2-.4h-.3l.1-.3h.7l-.1.3q-.4-.4-.3 0l.3.2.2.2-.3.4-.2-.2v-.1.2l-.2.1v.4h.6v-.1h.3v-.6l-.1-.2.2.2h.2q-.2.1 0 .3l.2-.2.2.2q.2.2 0 .2h.2q0 .3.3.4l-.4-.2v.4l-.3-.4v.4h.3l-.4.2h.5q.3 0 .5-.4l.2.2.2-.4h-.4q0 .2-.2 0 .2-.1 0-.5l.4.3v-.2l-.4-.2.1-.1h.2l.3.3c.3 0 .1-.4.2-.4q.1-.1.1.2 0 .2.2.3h-.4l.5.2q0 .2-.4.1 0 .3-.3.5h.2l.2-.3.1.1v-.1q.2.1.3.4l-.2-.2q-.3 0-.2.2l.1.2-.7-.3.1.3.1.3c.2.2 0-.2.1-.2l.6-.1v.2l.2-.1h.2c.2.1 0 .4.3.4v-.3l.2.2h.2q0-.4.3-.7l.3.3h-.2l-.2.5h.3v.2h.3l.3.1q.1-.3-.1-.3v-.5q.4.1.5.5h.2l.1.2q.2-.2 0-.3t-.2-.3l.6.4.4.1.2.1h.6l.5-.2.1-.4h-.1v-.3l-.3.1h-.4q0 .2.3 0l.2.3-.6.1-.3-.4h.4l.1-.3-.5.2v-.4h.6l.1.4q.4-.2 0-.4h.4v.3h.7l-.2-.3h-.4q0-.3.3-.1v-.2h.2v.2q0 .2.2.3v.2h.3l-.2-.2.2.1.2.5.2-.2h-.2l.3-.4-.1-.2h-.2v-.2h.6v.2l.2-.2.2.1-.1.1.4.1v-.1h.2l.3.3v-.3h.2v.1h.2l-.1-.2.5-.2-.2.3h.5l-.1-.2q.2-.2 0-.4l.4.1q.4 0 .6-.3v-.2l.1.4.2-.2v-.6h-.4v-.2l.2-.2.2.2v.3l.1.2.2-.4.1.2h.2v.1l.1-.2.2-.2.2-.1.6-.1-.3-.4h-.2q-.2 0 .1.2h.2q-.3.4-.6 0l-.2.2-.1-.4.2-.1q0 .1.2 0v-.2c0-.2-.2 0-.3-.2l.2.1h.3l.2.2-.1-.3h.1v-.2l.5-.1-.2.3h-.2l.2.5v-.3h.2l-.1-.3.2.1v-.2l.3-.3v.1h.2q.1.2.4 0l-.1-.2v-.1h-.3.4q.3-.2.4 0l.2-.4q.2 0 .2-.2l-.3.1h-.1q-.5 0-.2-.3h.4l.3.2.1-.2.2.2h.3l.2-.3h-.2l-.2-.7.3-.2-.1-.3.1.2v.7l.1-.3.4-.1v-.1l.1-.2.1.2.2-.1.1.2q.1-.2 0-.2l.6-.2.1-.4.3-.4.7-.8q.4-.3.4-.6h-.2q0-.3.3-.6l-.2.3.2.1.2-.2.1-.2.1-.3.1.1.1-.2h.2l-.2.3.6-.6-.1-.3q.4-.2.3-.5l.2-.2h-.2l.3-.2v.2l.1-.2.2-.3.1-.3h.3l-.1-.1.3-.3h-.2v-.2.2l.4-.5h.1l.2-.1-.2-.1v.2h-.3v-.1l-.1.2v-.2l.3-.5.2.2.1-.3.1-.2q.1 0 0 .1h.2v.1l-.3.2h.2l.3-.2.1-.3.3-.3.2-.4h-.2l.2-.1.1-.3v.2l.2-.3h-.2.1v-.1l.1-.3v-.2l.5-.5v.2h-.1v.1l.2-.1v-.2l.2-.3.6-1 .3-.6.1-.2.1-.3.3-.5.1-.3.1-.2v-.2.3q-.1 0 0 0v-.3l.2-.3-.2.3.2-.2v-.2l.2-.2v-.2q0 .3-.3.5v.1l-.4.5-.2.3-.1.1-.3.4-.2.3-.3.3-.3.4-.1.3-.3.2v.2-.1q-.2 0-.3.3l-.4.4v.3l-.4.3v.1l-.7.6-.5.7q-.3.2-.3.4h-.1l-.2.2h-.1q0 .2-.3.3 0 .2-.2.3v.2h-.2l.1-.2-.2.2-.1.2v.2h-.3v.3l-.1-.2h-.2v.4l-.2-.1v.1l-.2.1-.2.2v.1q-.3 0-.5.3-.7.5-1.2 1.2-.3 0-.5.3v-.3l-.2.3v.2l-.3-.2q-.1.2.2.3l-.4.3v.1q-.3 0-.5.3h-.3v.4l-.2.2-.1-.2-.1.1-.2-.1v.1q-.5-.1-.3.1h.1v.2h-.3v.2q-.4 0-.5-.2l-.2.1.1.1-.1.3-.2-.1v-.3l.4-.3q.1.3.4.3l-.2-.3h.3q0-.3.3-.3l-.2-.5h.3l-.1.2.3.3.4-.3v-.4h.2l.3.1v-.5l.1-.1h.4v-.4l-.2-.2h.3l.2.4.3-.3h-.1v-.2h.2q-.3 0-.4-.3.2 0 .3.2l.2-.2.2.1q.1-.2-.2-.2 0-.2-.1.1h-.1q0-.3.3-.4v.2h.3v.2l.3-.3h-.4l.1-.3.1.1.5-.3h.5v-.2l-.1.2-.2-.1.5-.2v-.4l.2.1.2-.1h.2l-.3-.2h.4l-.2-.2h.1v-.1l-.2.2.1-.4h.3l.1-.1.1.1.1-.1-.2-.1h.4l.3-.3v-.2l.2-.2.3-.4h-.3v-.2l.1-.2h.1v-.1q-.3 0-.4.2zm-31.3 5v.2l-.2-.2zl-.2-.3h-.2l.3.7v.1l.2.2v-.3h.2v-.3zm-.5-.1h.1m-1.6-2.7v-.1m2.6 4.1v-.1m-1.8-2.8v-.1m4.2 5.5h.2l-.2-.3zm-1.2-1.8h-.3v.2zm-5.7-9q0-.3-.2-.2h.1zm3.5 6.2v.2zm4.2 5.3.2.1zm-6.5-9-.1-.1zm5.4 7.8h.2l-.1-.1zm-6.8-10.9v-.2.5h.1zm5 8.8h.2zv-.1zm3.9 3.7-.1.3.1.2.2-.3zm-1.1-.6h.2l-.1-.1zm-6.5-9.1-.1-.4v.2zm1.3 2-.1.2h.2zm5 6.8v-.1m4.1 3.3h.5l-.3-.2zm-12-16.2v.2l.1.3v-.1h-.1v.1l-.1-.1zm11 15.4h.2l.1-.2zm-.4-.2.3-.2h-.1zm-10.6-14.6.1.2zm7.7 11.9.2.2zm6.2 4.5.3.2h.5l-.6-.4zm-.5-.2h.2zm-6.8-5.8v.3zm-.6-1.1h-.2l-.3.1q.1.2.2 0zm9.5 7.5.3.3-.1-.3zm-13.5-12.8v.2h.1zm11 12.3.1.2.1-.2zm-6.2-4.8h.2v-.1zm8.9 6.1.4-.2h-.3zm-8.4-5.7v-.1zm4.9 4v-.1m-6.7-6.3h-.2zm4.9 4.8h-.2l.1-.2zm-9-11.2-.2-.1v.1zm23 14.5.1-.1zm-15.4-4.8-.2.1v.2h.2zm3.7 3h.2v-.1h-.1zm2 .5q-.3 0-.4.2l.5.1.1-.4zm-15-16.7v-.1l-.3-.4q.2.1.3.5m7.6 12v-.1m5.6 3.9.3.1h-.1v.3l.2.2.3-.1v-.2h-.4v-.4h-.3m-1.8-1q-.2 0-.2-.3zm0-2v.2q.3 0 .1.2h-.2l-.2.2v.2l-.1.4-.6-.1v.2l-.2-.3-.1.1-.3-.2.4.1v-.1l.2.2.2-.2.2.2-.3-.3.3-.2h-.3l-.2-.1v-.2q.1.2.4-.1l-.2-.2.2-.1h.3v.4l.2-.3zm-9-8.3v.2zm8.8 10v.2l-.2-.1.1-.2zm-6.4-6.5h-.2v-.2h.1zm-2.5-3.6-.1-.3zm12.5 11.8-.3.3h-.2zm9.4 1.3-.2.1zm-14.2-4h-.2zm-6.7-7.5-.1-.2zm9.4 9.5.2.2.1-.1zm13.1 1.5h.2zm-25.3-16.1v-.1zm10.4 13.2h-.2zm-4.7-5.3v.3h-.4v-.2l-.1-.2q-.2 0 0 .2h-.2l.1-.4-.2-.1-.2-.3-.2.2-.2-.2q.3 0 .5-.2v.3q.4.1.6.4l-.1.1h.4m21.8 7.3.2-.1-.2-.1zm-19.5-4.2h-.3zm3.7 3.1h-.2zm10.3 2.7h.3v-.2h-.3zm10.2-5v-.2zm-32-11.8v.2zh-.2zm9.3 12.3-.1-.2zm-6.4-7.3.2.2zh-.2l-.2-.4h.1v.2zm10.6 10.2v-.1zm-8-6.7h-.2v-.2zm24 5.1.2-.1zm-18.7-.9.3.5h.1q.2 0 .3.2h-.3q-.3 0-.3.2-.2-.3-.5-.4l.2-.4.1.2zm6.4 3.6q.1-.2.4 0l-.2.2c-.2 0 .1-.3-.2-.2m11.6-2.2-.1-.1h-.2zm1.7-1.3.1-.2v-.1q-.2 0-.3.2zm-12 3.7h-.2v-.6zm-18.4-16q0-.2-.2-.3h.1zm28.7 13.2.2.1v-.2zm-2.8 1v.3l.2-.1.1.2-.5.4v-.2l-.1-.5zm-6.3 1.8-.3.1zm4.5-1.7.6.1v.4l.4-.2h.4l-.3.1.2.4-.3.1v-.1h-.2v-.2h-.2v-.1h-.2v-.1l-.1-.1-.2.1q.2-.3-.1-.4m-23.5-13.5-.1-.2zm-.8-1.4-.1-.1m10.8 13.4.2.2v-.1zm12.3 2.6q0 .4.4.3v-.3zm3.7-1h-.3zm5-3.4h.2l.1-.4zm-32.1-12.3-.2-.2v-.1zm17.5 16.9v-.1zm12-2.5v-.2zm-19.6-1.4-.3-.1v-.1zm-.3-.4-.1.2zm-2.3-2.2q-.2.1-.5-.2l.2-.1.2.1zm11.9 6.7h-.2zm-18.2-15.2-.1-.1zm11.2 12.8h.2l-.1-.1zm20.7-4.5q0 .2.2.2h.4v.5l-.4.2v-.3h-.2l.1-.3-.3.1.1-.1-.1-.1zm-28.9-3.8h-.2v-.3zm4.1 4.6-.1.2h-.1zm-5.7-7.5h-.2v.5q0-.2-.3-.5l.1.1h.2l-.2-.1.1-.2zm32.7 5.7.2-.2zm-10 7v.2h-.3zm-24.9-15.7v-.1h-.1m33.8 9.4.2.3-.2-.1zm-.4.3.2-.1.1.3-.1.2v-.3zh-.5l.2-.4zm-23.3 3h.2l.1-.2-.2-.1zm4.6 2.2-.2.3h-.2q-.3-.2-.1-.5v.2zm-5.7-3.4h-.4q.2-.4.4 0m0-.7-.2.3-.2.1-.2-.2.3-.1v-.3zm26.2-2.5.1-.2zm-28 1.8-.1-.1h.2zm-6.5-8.9.2.2v.3-.3zm17.4 14.8q-.1.3-.4.2h-.2l.2-.3zm22.4-15.8.3-.4-.1.3v.1l-.2.2zm-24.9 15.1q-.1.3-.5.2.1-.3.5-.3m4.3.2-.1.2q0 .2.2.3 0 .3.4.4v.1h-.5v-.3l-.3-.2h-.2.1l-.3-.2q.3-.2.5-.1 0-.2.2-.2m21.2-16.2-.1.2v.2l-.1.1v-.3zm0 0v-.1m-13.7 15v.2l-.2.2v-.2zm-24.5-9.6v-.1m35.4-1.2.2-.2v.2-.1l-.3.4zl-.1.2zm2.5-4.1.1-.3v.2l.2-.3v-.1h.1v.2h-.1v-.2.2h-.1v.2zm-6.7 10v-.1m-10.2 6.5h-.2zm-18.6-8.5q.4 0 .4.5h-.3q0-.2-.3-.3zm-4.1-6.4v.3l-.2-.2.3.3.2.3.2.3.2.2-.1.1v.1l-.1-.2h-.1v.2l-.1-.1v.1l-.1-.1v-.2l-.2-.4v.1l-.2-.4v-.2l-.1-.3zv-.1m16 15-.3-.1v-.2zm15.4-5.4v.2h-.1zm-29.8-6.2-.1-.1zm4.7 5.4-.2.2zm-6.2-7.7-.1-.1zm-1-1.8.1.2.2.2v.2l-.1-.2zl-.1-.2v-.1zm33.8 8.7h.2l-.1.2q-.2 0 0-.3m-34.5-10-.2-.3zm23 16.8q.7.1 0 .3zm9.6-5v.3l-.2-.1zm-.2.4-.2.2v-.1zm4-4.4h.1v.2zm-.6.5q-.2 0 .1-.2h.4l-.2.3-.2-.2zm-21.9 7v.2h-.1zm5.6 1.8h-.2zm-.3 0-.2-.1zm22.5-17.5.1-.1.2-.1-.1.2-.3.2zm-28.8 15h-.5l.1-.4.4.1zm27.9-13.1v-.3zm-30.6 11.5q0-.2-.2-.2h.3zm16.5 2.8h.1m-25-12.7v-.1m22.7 13.2.3.3-.3-.1h-.1v-.3q-.3-.3 0-.3zm-12.2-2.6h-.2l-.2.3h.3l.3.1-.2.1-.3-.2-.1.1q-.1 0 0-.2l-.2.1-.2-.2.2-.3h.2v.1h.4m-12.9-14.9.1.2zm17.1 17.5q-.2 0-.2-.2zm5.7.7-.2.1zm-6.9-1.5q.3 0 .1.3l.3.1h-.3q-.2-.1 0-.4m6.1 1.6.1-.3.2-.1zm-.2-.1-.2.1v-.1zm-6.3-1.6-.2.2h-.2zm11.9.3-.1.2h-.1zm-.3.1-.5.3v-.3l.1-.2v-.2zm-13-.7h.2zm11.8.7q.3 0 .5.3 0 .1-.1 0-.3 0-.4-.3m16.9-16.7.1-.3zm-4.9 7.6v.2h-.1zm3.2-4.7v.2zm-30.6 10.5h.1v-.1zm17.9 2.6h-.2zm-18.1-3-.2.1v-.2zm26-3.7h.1v.2zm-.4.8-.2-.1-.2.3q0-.3.3-.6zm-5.4 4.5v.2l-.2-.1zm-.1.3-.2.1v-.2zm11.6-13.6v.2h-.2zm-12 13.8h.1m11.3-12.6.1-.2zl-.2.2zm-3.7 5.4v-.2l.2.1zm-8.9 7.7.2.2h-.3v-.3zm4.5-3.2h.3l-.2.2zm0 .1v.2zm7-8.4.1-.2h.2zv.2zl-.2.1v-.1zm-12.6 12.3h.1m-6 1h.2l-.2.4zv.4q-.5-.4 0-.6zm-19.4-14.1.1.3v-.2l.1.1zm11.8 12.3h-.2l.1-.2zm-6-4.8v.2zm10.4 6.5h-.2v-.1zm-1-.4-.2.2zm20-9.2q0 .3.2.2l-.1.2zm-17.2 10-.2-.1.1-.2zm1-1.8.3-.1zv.2h.2l-.2.2v-.2.3l-.2-.1v.4h.2v.5l-.2-.5-.3.3q-.3.2-.3-.3-.4.3-.6 0l-.2.2v.5l-.2.1v-.4l.2-.6h-.3l-.2-.3h.1l.4.3q0-.3.3-.3v.1h.1v.2h.3l-.1-.4.2.2.2-.2v.5h.3v-.4l.2-.1zm-2.2 1.5h-.2v-.1zm19.2-10.4v.2h-.1zm-20.9 9.8-.1.2-.2-.2zm-15.7-14.5-.1-.1zm1.1 1.5-.2-.2.1.4zm27.9 10.2q.2 0 .3.2zm4-3.3h.2q.1 0 0 .1zm-22.7 3.2h-.2v-.1zm12 3.2v.2h-.2zm-12.7-3.6h.2l-.1-.2zm6 3-.2.3-.2-.1.2-.3s-.3 0-.1-.1zm19.6-8.4.2.1q-.3.1-.3-.2m-22.9 7 .4.3q-.3 0-.4-.3m12 .2-.2.2h-.2.1v.2h-.1v.6l.2-.3.3.2.1-.1.2.2v.3h-.1v-.2h-.5l-.1.4-.2-.7-.6.1q0-.3.3-.3h.2q.2-.2 0-.5-.3.3-.5 0h.2v-.2l.2.1v-.1.2h.2v.1q.2-.1.2-.5zm15.3-12.7v-.1zm-13 12.6h.2v.4zm-5.8 2-.4.3q0-.2.2-.2l-.2-.1.1-.2zm9.3-4v.2zm7.4-7.6v-.2zm3.7-5.7-.2.2zm-24.2 16.8.4.2v.2h-.4v-.2h-.2q0-.2.2-.2m-14.2-10.5.2.3zm30.4 4v.4l-.1-.2zm3.5-3.7-.1.2zm-13.8 10.1v.4l-.2-.3zm-19.3-9.8h-.4zm32 1v.2h-.1zm-1.4 1.5h.2zm-.8 1v-.1m-33.7-8.6-.1-.2zm25.3 14 .2.1.3.1h-.4zm-18-5.1v.2zm21.6 3.4v.2zm7.6-7.1v.2zm1-1.3v.2h-.2zm-30.6 4.8h.2l-.1-.1m10.1 5.7.2.1h.3q0 .3-.2.2v.2h-.4v-.1q-.2-.2-.1-.4zm10.6-1.4.2.1zm-11.6 1.4.3.2h-.5zm5.7.8h-.2zm5.6-2.1.2-.2zq0 .2-.2 0v-.1m-10.7.7v.9h-.2q0-.2-.2-.3h.2zm-18.2-16.4.1.2zm33.1 12.6.2.1h-.3zm-28-5.3v.2h.1zm26.1 6.7q.2 0 .3.2h-.4zm-15.8 2.2v-.1zm15.4-1.5-.3-.2h.2v-.3zm-12.4 2.7h.2v-.2zm6 0q0 .1 0 0m3.4-1.3v.2zm-11.7.1v.2l.2.2q0-.3-.2-.4m5.7 1.6q0-.2.1 0m-17.6-11.6v-.1m-1.4-2-.1-.1zm-.5-.8h-.1m4.2 5.5v-.1zm11.3 8h-.5.1v-.2h-.1v-.1h.1v.2h.2v-.2l.1-.2zm-6.1-3.3q-.1-.2-.3-.1zm-6.3-6v-.1zm2.9 2.6-.1.2h-.3l.2-.2v-.1zm-.5-.2h-.2l.1-.1zm16.3 6.7v.3zl-.4.7v-.3h.2l-.1-.5.2-.2zm-20.7-11.9h-.2v-.2zm31.8 5.6.2.1-.1.1h-.2zm-20.8 4.8-.1.2h.2zm-5.7-4.2v-.1zm-.2-.3h-.2zm16.3 5.9.1.6-.1-.3h-.4v.3-.3h.1v-.3zm2.7-1v.3q.4.1 0 .3zm-5.6 1.7.2.1-.2.1zm-9.3-3.1.1-.1v-.1zm10.3 2.2v.2l.2-.1.2.3h-.3v-.2q-.2 0-.1.3.2 0 .3.4l-.3.1v-.2q0 .2-.2.2l.2-.4q-.3-.2-.2.2h-.2q0-.3.3-.4zm-12-3.6v-.1m15.6 3.4v.3l-.2-.2zm-17-4.6h.2v-.1zm33.8-11.3v.2zm-29.3 14.7v-.2zm-1.9-1.9v.6q0-.3.2-.4zm23.7-3.5v.3h-.2zm-8.7 6.4q-.3 0-.2.3h-.2l.1-.3zm-19.6-6.5v-.1zm21.9 5.3v.2zm-10.5 1.7h-.3l-.3.3.2-.4h.2l.1-.1zm9.6-1.5q.3 0 .4.3-.3 0-.4-.3m-5 2-.2.2v-.2zm-11-1.2.1-.1zm16.2 1.8-.2.2v-.3zm-17.8-3.4h-.2l.1.2zm-1.5-1.5.1.4-.5-.4zm16.3 6q0 .1 0 0m-18.1-7.5-.3-.3v-.2l.1.2.4.1zm11.6 7.7q0-.1 0 0m14.5-5v.2l-.2-.1zm-3.8 2.6q.2.2 0 .3l-.2-.2h-.2l.2-.2zm-1.1.6v.2q-.1-.1 0-.2m-22.4-7.4h-.2v-.1zm16.4 9h.2l-.2.4q-.2-.2 0-.3m4.1-.6-.2.1zm-5.5 1h-.2v-.1h.2m-12.2-6.5-.2-.2q.2 0 .2.2m5.3 3.7q.1.2 0 .4v-.2h-.2zm-5.9-4.4h-.1zm15.4 7h-.2v-.1zm-5.4-.8-.1.4h-.2v-.1zm17-6.1v.2h-.1zm-.2.3h-.2zM1683 625v.2h-.2v-.2zm11.6-3.8-.1-.1m-7.4 3.2q.3.2.5 0l.2.2-.2.2v-.2h-.2v.1l-.1.1zm5-1.9.3.2-.2.1zm-22.3-5.5.2.1zm5.7 4.8h-.2l.2-.2.2-.1zm15.2 1.5-.2.1v.3-.3zm-17.7-3.5v.2h-.1zm11 5.1-.1.2zm12.9-5.7-.3-.2.2-.1zm-26-1.1-.2-.3.2.1zm29.7-2.6h-.2l.1-.1zm-4.3 3.9.2.1zm-6.3 4.1v.4h-.1zm-16.5-3.3v.2zm10 4.7v.1h-.1zm-.2 0h-.3zm-11.7-6.5-.1.1h-.2v-.1zm-.3-.2v-.2zm25.8.5h.2zm-14.8 6h-.2zm-5.7-2.3h-.2zm-6.1-4.8-.2-.1zm20.4 5.5.2.1h-.1m-4.8 1.6.6-.1-.1.2h-.5zm-6.8-1.1-.2-.2-.1.4-.2-.2q.1-.4.6-.3zm17.8-5.2.4-.2h.3l-.4.2q0 .2-.3 0m-4.2 3.7v-.3zm-15.7.5v.2l-.2-.1v-.1zm7.8 1.8q.2 0 .1.3l-.3-.2.2.4-.2-.1v.1h-.1v-.1q0-.3.2-.4m4.7-.7-.2.1v-.1zm-.5.3.1-.2zm-10.7-.6-.1-.1h.3zm4.1.8v.3l-.2.1h.3q-.3.3-.5-.2l.1-.2zm-6.5-2.4-.1.2-.1-.1v-.1zm15.2 1q0 .1 0 0m-16-1.5h-.2v-.1zm15 2h-.2zm-15.9-2.8q.3.1 0 .4zl-.2-.1q0-.2.2 0m14.6 3v.4l-.3-.2zm4.1-1.9v.2zm-4.8 2q.4.3 0 .6l-.1-.3h.1zm-5.4 1q0 .1 0 0m-.8-.3v.2h-.1zm-9.1-4.9v.2l-.2-.1zm4.3 3h-.2zm-.7-.5v.2q-.2-.1 0-.2m4.8 2.2v.2zm-.6-.2-.2.2zm8.7-.6.2.2h-.2zm-6.2.9q.2-.1.1.2h.2v.2l-.1-.1h-.3zm9.2-2.5.1.1zm-5.2 2.3q.2-.5.2.1v-.1zm-.9.2.2.1zm3.7-2h.5l-.1-.2h.2l.1-.2.1.2.7-.2.2.1q-.1.3-.5.3v.2h-.2v.2l-.3-.1v.2h-.4l-.5.2-.3.1-.2.1-.2-.1.1-.2v-.3l.3.3q.5 0 .3-.4h.5zm-14.3-1h-.2zm13.2 2 .1.1v.2zm3.4-2v.2l.4-.2v.3l-.6.2v-.1l.2-.2zm-6.8 2.7-.1.3v-.6zm2.7-.3-.2.1v-.1zm3.6-2.5.3.2h-.2l.1.2-.2.2.2.2-.2.1v-.3l-.1-.1v-.4zm-4 2.4v.2zm-1.3.2v.3h-.1zm-1.6.2v.3l-.2-.3zm-7.4-1.9q.4 0 .3.3l-.3-.2m10 1.6v.1zm-.7 0 .2-.1.1.3h-.4v-.5zm3.8-1.1v-.2zm-1.3.5h.2zm-.8-.1q.3-.1.6.2-.3.2-.7-.1h.3zm-4.3.8v.4h-.1zm12.3-5.3h-.2zm-12.6 5.5h-.2zm-1.2-.3v.2h-.2zm12.4-4.4v.2h-.2zm-.8.6h.3zm-9.2 3.8v.3zm-1.8 0v.3zm4-.4v.3zm-5.3 0 .2.3q0 .2-.2.1zm17.4-7.8h.1v.1zm-9.8 6.8h.2q-.2.1 0 .4l-.2-.1zm-5 1.5v.1zm8.9-3.4v.1zm-15.1 1.8h-.4l.1-.2zm-.5-.4-.2.2v-.2zm4.6 1.8-.2.1v-.1zm13-4.7v.2zm-19.8 1.7v.2zm9.9 3q.1.1 0 .2zm3.9-1q0 .1 0 0m10.2-7.6.3-.1-.2.3q-.1 0 0-.2m-5.3 4.7-.1.2zm-14 3.2v.2zm17.4-6v.1zm-14.8 6.6v.2h-.1zm11.5-4v.1m3.5-2.8-.1.2zm-20.8 4.6-.1.1zm17.4-2v.1m-6.6 3.5v.2l-.1-.1zm-9.5-.7h.1zm8.7 1v.1h-.1m2.7-1.2.3.1zm4.2-2.3h-.2zm-8.9 3.7v.2zm-5.3-.8v.1h-.2v-.1zm9 0q0 .1 0 0m7-4.3v.1h-.2zm-13.5 5v.1zm-1-.4v.2h-.2v-.2zm-7-3.5h-.2zm18 1.3h.1v.1q-.2 0-.3-.2zm-5.4 2.2.2.1v.1h-.2zm-4.1.3v.2l-.2-.2zm.3 0v.2zm11.3-4v.2h-.1zm-9.3 4.1h-.2v-.1zm-.4-.2.2.1v.2zm6.3-1.9v.2zm-7.7 2v-.2zm-.4 0q0-.1 0 0m17.2-8.9v.1h.2v-.2zm-12.3 8.1v.2zm-1 .4h.1m-1.6.3q0-.2 0 0m7.2-2.8h.1v-.1zm.1-.2h.2v-.1zm-9.5 2.5v-.2z" opacity=".9"/></svg>