<svg width="24" height="24" viewBox="0 0 24 24" fill="none" xmlns="http://www.w3.org/2000/svg">
<path d="M17 13C17.5523 13 18 13.4477 18 14C18 14.5523 17.5523 15 17 15H7C6.44772 15 6 14.5523 6 14C6 13.4477 6.44772 13 7 13H17Z" fill="currentColor"/>
<path d="M7.00977 9C7.56205 9 8.00977 9.44772 8.00977 10C8.00977 10.5523 7.56205 11 7.00977 11H7C6.44772 11 6 10.5523 6 10C6 9.44772 6.44772 9 7 9H7.00977Z" fill="currentColor"/>
<path d="M11.0098 9C11.562 9 12.0098 9.44772 12.0098 10C12.0098 10.5523 11.562 11 11.0098 11H11C10.4477 11 10 10.5523 10 10C10 9.44772 10.4477 9 11 9H11.0098Z" fill="currentColor"/>
<path d="M15.0098 9C15.5621 9 16.0098 9.44772 16.0098 10C16.0098 10.5523 15.5621 11 15.0098 11H15C14.4477 11 14 10.5523 14 10C14 9.44772 14.4477 9 15 9H15.0098Z" fill="currentColor"/>
<path fill-rule="evenodd" clip-rule="evenodd" d="M19 5C20.6569 5 22 6.34315 22 8V16C22 17.6569 20.6569 19 19 19H5C3.34315 19 2 17.6569 2 16V8C2 6.34315 3.34315 5 5 5H19ZM5 7C4.44772 7 4 7.44772 4 8V16C4 16.5523 4.44772 17 5 17H19C19.5523 17 20 16.5523 20 16V8C20 7.44772 19.5523 7 19 7H5Z" fill="currentColor"/>
</svg>
